<?xml version="1.0" encoding="UTF-8" standalone="no"?>
<!DOCTYPE svg PUBLIC "-//W3C//DTD SVG 1.1//EN" "http://www.w3.org/Graphics/SVG/1.1/DTD/svg11.dtd">
<svg width="100%" height="100%" viewBox="0 0 80 80" version="1.1" xmlns="http://www.w3.org/2000/svg" xmlns:xlink="http://www.w3.org/1999/xlink" xml:space="preserve" xmlns:serif="http://www.serif.com/" style="fill-rule:evenodd;clip-rule:evenodd;stroke-linejoin:round;stroke-miterlimit:1.41421;">
    <g transform="matrix(0.670123,-0.276049,0.287664,0.69832,-7.88916,18.8864)">
        <path d="M50,10.208C28.059,10.208 10.208,28.058 10.208,50C10.208,71.942 28.059,89.792 50,89.792C50.062,89.792 50.122,89.788 50.184,89.787C50.188,89.788 50.196,89.791 50.201,89.792L50.21,89.787C72.054,89.673 89.792,71.871 89.792,50C89.792,28.059 71.941,10.208 50,10.208ZM30.934,49.513C30.985,44.117 31.866,39.384 33.23,35.259C37.336,35.91 42.29,36.375 48.159,36.441L48.159,62.661C42.31,62.701 37.355,63.135 33.228,63.761C31.865,59.639 30.984,54.907 30.934,49.513ZM51.841,36.432C57.706,36.328 62.644,35.821 66.732,35.14C68.118,39.292 69.015,44.065 69.066,49.513C69.014,55.033 68.096,59.862 66.678,64.052C62.625,63.351 57.697,62.821 51.841,62.69L51.841,36.432ZM72.466,49.513C72.467,49.349 72.477,49.191 72.477,49.026L72.456,49.026C72.359,43.608 71.462,38.776 70.078,34.51C75.642,33.329 79.208,31.889 81.032,31.019C84.428,36.549 86.395,43.047 86.395,50C86.395,56.757 84.542,63.089 81.319,68.517C79.959,67.794 76.31,66.09 69.999,64.704C71.421,60.388 72.358,55.504 72.456,50L72.477,50C72.476,49.835 72.467,49.677 72.466,49.513ZM79.088,28.162C77.289,28.965 73.947,30.228 68.878,31.271C65.721,23.538 61.028,17.92 57.065,14.301C66.015,16.069 73.793,21.13 79.088,28.162ZM65.497,31.883C61.711,32.486 57.177,32.932 51.841,33.032L51.841,14.47C55.51,17.21 61.626,22.816 65.497,31.883ZM48.159,14.47L48.159,33.043C42.81,32.98 38.257,32.571 34.453,31.996C38.322,22.862 44.474,17.221 48.159,14.47ZM42.935,14.301C38.949,17.942 34.222,23.603 31.065,31.406C26.065,30.418 22.694,29.197 20.769,28.358C26.066,21.225 33.903,16.086 42.935,14.301ZM18.842,31.23C20.826,32.152 24.421,33.538 29.882,34.653C28.523,38.885 27.642,43.667 27.546,49.026L27.525,49.026C27.525,49.191 27.534,49.349 27.536,49.513C27.535,49.677 27.525,49.835 27.525,50L27.546,50C27.642,55.351 28.533,60.112 29.889,64.339C24.137,65.465 20.372,66.907 18.311,67.861C15.322,62.581 13.608,56.488 13.608,49.999C13.607,43.136 15.524,36.714 18.842,31.23ZM20.145,70.775C22.131,69.905 25.693,68.607 31.054,67.592C34.589,76.348 40.103,82.406 44.333,85.95C34.346,84.381 25.7,78.733 20.145,70.775ZM34.453,67.03C38.277,66.479 42.829,66.098 48.159,66.06L48.159,84.556C44.474,81.805 38.321,76.165 34.453,67.03ZM51.841,66.09C57.163,66.215 61.676,66.684 65.426,67.305C61.551,76.276 55.488,81.833 51.841,84.557L51.841,66.09ZM55.667,85.949C59.841,82.452 65.271,76.513 68.811,67.944C74.608,69.181 78.06,70.689 79.434,71.375C73.868,79.018 65.402,84.42 55.667,85.949Z" style="fill:rgb(34,0,72);fill-rule:nonzero;"/>
    </g>
</svg>
