<?xml version="1.0" encoding="UTF-8" standalone="no"?>
<!DOCTYPE svg PUBLIC "-//W3C//DTD SVG 1.1//EN" "http://www.w3.org/Graphics/SVG/1.1/DTD/svg11.dtd">
<svg width="100%" height="100%" viewBox="0 0 80 80" version="1.1" xmlns="http://www.w3.org/2000/svg" xmlns:xlink="http://www.w3.org/1999/xlink" xml:space="preserve" xmlns:serif="http://www.serif.com/" style="fill-rule:evenodd;clip-rule:evenodd;stroke-linejoin:round;stroke-miterlimit:1.41421;">
    <g transform="matrix(2.59263,0,0,2.59263,59.5304,57.217)">
        <g>
            <g>
                <g transform="matrix(1,0,0,1,-19.5335,-18.6412)">
                    <path d="M12.4,15.243L12.4,13.611C12.821,13.736 13.129,14.036 13.129,14.379C13.129,14.6 13.309,14.779 13.529,14.779C13.749,14.779 13.929,14.6 13.929,14.379C13.929,13.602 13.273,12.952 12.4,12.789L12.4,12.433C12.4,12.212 12.22,12.033 12,12.033C11.78,12.033 11.6,12.212 11.6,12.433L11.6,12.779C10.701,12.926 10.021,13.587 10.021,14.379C10.021,15.171 10.701,15.832 11.6,15.979L11.6,17.61C11.179,17.485 10.872,17.185 10.872,16.842C10.872,16.621 10.692,16.442 10.472,16.442C10.252,16.442 10.072,16.621 10.072,16.842C10.072,17.619 10.728,18.269 11.6,18.432L11.6,18.691C11.6,18.912 11.78,19.091 12,19.091C12.22,19.091 12.4,18.912 12.4,18.691L12.4,18.504L12.4,18.442C13.298,18.295 13.979,17.635 13.979,16.842C13.979,16.051 13.298,15.39 12.4,15.243ZM10.821,14.379C10.821,14.024 11.153,13.72 11.599,13.604L11.599,15.155C11.153,15.039 10.821,14.735 10.821,14.379ZM12.4,17.619L12.4,16.068C12.846,16.184 13.178,16.488 13.178,16.844C13.178,17.199 12.845,17.503 12.4,17.619Z" style="fill:rgb(34,0,72);fill-rule:nonzero;"/>
                </g>
                <g transform="matrix(1,0,0,1,-19.5335,-18.6412)">
                    <path d="M14.029,6.435L16.702,3.496L18.336,1.629C18.447,1.503 18.467,1.319 18.385,1.172C18.303,1.026 18.144,0.943 17.972,0.971C17.96,0.973 16.841,1.152 16.303,1.154C16.224,1.136 16,0.985 15.837,0.875C15.338,0.536 14.653,0.072 13.816,0.072C13.109,0.072 12.606,0.353 12.163,0.602C11.815,0.797 11.514,0.966 11.166,0.966C10.822,0.966 10.48,0.803 10.084,0.615C9.546,0.36 8.939,0.072 8.121,0.072C6.621,0.072 5.708,1.054 5.67,1.096C5.541,1.238 5.53,1.452 5.645,1.605L8.298,5.138C8.321,5.177 8.757,5.933 9.423,6.5C6.588,8.362 3.742,12.299 3.742,15.671C3.742,20.224 7.447,23.929 12,23.929C16.554,23.929 20.259,20.224 20.259,15.671C20.258,12.392 17.113,8.37 14.029,6.435ZM8.967,4.702L6.507,1.421C6.807,1.195 7.367,0.872 8.12,0.872C8.758,0.872 9.257,1.109 9.739,1.338C10.182,1.548 10.641,1.766 11.165,1.766C11.722,1.766 12.144,1.529 12.554,1.3C12.947,1.08 13.318,0.872 13.816,0.872C14.409,0.872 14.952,1.241 15.389,1.537C15.731,1.768 16,1.951 16.284,1.951C16.495,1.951 16.765,1.93 17.034,1.902L13.23,6.125L10.251,6.125C9.537,5.692 9,4.753 8.967,4.702ZM12,23.128C7.888,23.128 4.543,19.782 4.543,15.67C4.543,12.453 7.533,8.51 10.253,6.924L13.3,6.924C16.232,8.625 19.457,12.598 19.457,15.67C19.458,19.783 16.112,23.128 12,23.128Z" style="fill:rgb(34,0,72);fill-rule:nonzero;"/>
                </g>
            </g>
        </g>
    </g>
</svg>
