<?xml version="1.0" encoding="UTF-8" standalone="no"?>
<!DOCTYPE svg PUBLIC "-//W3C//DTD SVG 1.1//EN" "http://www.w3.org/Graphics/SVG/1.1/DTD/svg11.dtd">
<svg width="100%" height="100%" viewBox="0 0 80 80" version="1.1" xmlns="http://www.w3.org/2000/svg" xmlns:xlink="http://www.w3.org/1999/xlink" xml:space="preserve" xmlns:serif="http://www.serif.com/" style="fill-rule:evenodd;clip-rule:evenodd;stroke-linejoin:round;stroke-miterlimit:1.41421;">
    <g transform="matrix(1,0,0,1,-9.99988,-10.5082)">
        <g>
            <g>
                <path d="M83.744,53.221C83.702,44.802 74.26,39.701 73.858,39.487C72.629,38.837 71.998,37.864 72.904,35.236C73.774,32.73 74.527,30.21 74.173,26.93C73.619,21.73 68.792,17.518 63.401,17.518C63.368,17.518 63.338,17.518 63.304,17.518C58.012,17.518 53.275,21.578 52.577,26.642C51.815,26.468 51.031,26.365 50.231,26.365C50.199,26.365 50.167,26.365 50.134,26.365C49.979,26.365 49.826,26.38 49.672,26.387C48.851,21.441 44.187,17.518 38.986,17.518C38.952,17.518 38.921,17.518 38.888,17.518C33.498,17.518 28.67,21.731 28.116,26.929C27.763,30.208 28.515,32.729 29.384,35.234C30.291,37.864 29.66,38.837 28.528,39.442C28.026,39.654 16.234,44.729 16.191,53.221C16.153,61.023 16.187,69.104 16.187,69.104C16.19,69.764 16.726,70.298 17.387,70.298L29.009,70.298C29.008,76.422 29.025,82.217 29.026,82.302C29.028,82.963 29.564,83.498 30.226,83.498L70.783,83.498C71.445,83.498 71.982,82.962 71.983,82.3C71.983,82.3 71.991,76.475 71.984,70.298L82.627,70.298C82.946,70.298 83.252,70.171 83.477,69.944C83.703,69.718 83.829,69.411 83.827,69.092L83.744,53.221ZM69.584,81.098L31.422,81.098C31.417,79.079 31.408,74.776 31.409,70.298C31.409,69.899 31.409,69.499 31.409,69.098C31.409,68.697 31.41,68.298 31.41,67.898C31.412,65.849 31.417,63.84 31.426,62.078C31.46,55.128 40.675,50.517 40.801,50.454C41.335,50.171 41.769,49.832 42.141,49.459C42.268,49.568 42.406,49.684 42.554,49.803C42.85,50.041 43.187,50.293 43.562,50.547C43.891,50.771 44.251,50.993 44.635,51.209C46.094,52.028 47.933,52.727 50.041,52.788C50.141,52.791 50.241,52.792 50.341,52.792C52.772,52.792 55.114,51.928 57.334,50.238C57.625,50.017 57.915,49.791 58.201,49.541C58.222,49.522 58.243,49.5 58.264,49.482C58.292,49.51 58.323,49.537 58.353,49.565C58.714,49.904 59.123,50.218 59.623,50.483C59.634,50.488 59.779,50.558 59.996,50.669C60.007,50.674 60.013,50.677 60.023,50.683C61.854,51.625 69.532,55.94 69.563,62.078C69.572,63.846 69.577,65.853 69.581,67.898C69.582,68.298 69.583,68.697 69.583,69.098C69.584,69.499 69.584,69.899 69.585,70.298C69.59,74.781 69.587,79.08 69.584,81.098ZM18.591,53.232C18.625,46.324 29.353,41.699 29.556,41.608C30.09,41.325 30.523,40.986 30.896,40.612C32.344,41.865 35.181,43.838 38.795,43.942C38.895,43.945 38.995,43.946 39.095,43.946C39.583,43.946 40.066,43.899 40.546,43.831C40.575,43.913 40.602,43.996 40.63,44.079C41.537,46.71 40.905,47.683 39.712,48.316C39.277,48.529 29.068,53.623 29.026,62.066C29.017,63.833 29.012,65.845 29.01,67.898L18.583,67.898C18.575,65.371 18.562,59.219 18.591,53.232ZM30.502,27.185C30.923,23.238 34.759,19.918 38.889,19.918C38.904,19.918 38.919,19.917 38.933,19.918C38.936,19.918 38.939,19.919 38.941,19.918C38.954,19.916 38.97,19.918 38.985,19.918C42.965,19.918 46.662,23.002 47.304,26.759C45.25,27.331 43.404,28.5 42.001,30.05L41.127,30.05L39.322,30.05L39.322,27.801L39.322,26.307C39.322,25.644 38.785,25.107 38.122,25.107C37.459,25.107 36.922,25.644 36.922,26.307L36.922,31.25C36.922,31.913 37.459,32.45 38.122,32.45L40.355,32.45C39.838,33.485 39.487,34.603 39.362,35.775C39.243,36.877 39.257,37.888 39.35,38.846C39.441,39.778 39.61,40.658 39.832,41.506C39.516,41.538 39.2,41.55 38.883,41.543C36.02,41.468 33.677,39.832 32.488,38.812C32.324,38.671 32.188,38.547 32.07,38.435C32.307,37.309 32.182,35.985 31.652,34.448C30.696,31.694 30.229,29.72 30.502,27.185ZM50.135,28.765C50.15,28.764 50.164,28.767 50.179,28.765C50.182,28.765 50.184,28.765 50.186,28.765C50.199,28.764 50.216,28.765 50.23,28.765C50.989,28.765 51.737,28.879 52.457,29.086C52.878,29.207 53.287,29.366 53.684,29.55C54.131,29.756 54.56,29.999 54.966,30.275C56.939,31.614 58.371,33.711 58.618,36.032C58.724,37.02 58.715,37.924 58.612,38.821C58.569,39.192 58.506,39.564 58.43,39.938C58.349,40.341 58.253,40.751 58.137,41.172C58.032,41.554 57.916,41.944 57.784,42.351C57.685,42.658 57.58,42.971 57.467,43.297C57.229,43.987 57.09,44.625 57.007,45.233C56.951,45.649 56.928,46.047 56.944,46.424C56.957,46.715 56.996,46.992 57.052,47.26C57.056,47.28 57.059,47.3 57.063,47.319C57.056,47.326 57.049,47.332 57.042,47.339C56.906,47.466 56.771,47.603 56.635,47.722C56.483,47.855 56.329,47.969 56.176,48.092C54.221,49.663 52.193,50.443 50.129,50.389C48.359,50.343 46.791,49.699 45.568,48.974C45.2,48.756 44.862,48.531 44.562,48.312C44.244,48.081 43.968,47.858 43.735,47.659C43.686,47.617 43.644,47.579 43.599,47.54C43.493,47.446 43.398,47.36 43.315,47.282C43.552,46.155 43.428,44.831 42.898,43.294C42.889,43.268 42.881,43.244 42.872,43.218C42.736,42.825 42.613,42.45 42.498,42.084C42.371,41.679 42.259,41.289 42.16,40.907C41.976,40.206 41.839,39.531 41.759,38.858C41.651,37.949 41.64,37.034 41.748,36.03C42.074,32.973 44.451,30.301 47.425,29.248C47.821,29.107 48.225,28.99 48.639,28.91C49.032,28.835 49.432,28.795 49.836,28.78C49.936,28.776 50.035,28.765 50.135,28.765ZM54.917,27.185C55.338,23.237 59.174,19.918 63.305,19.918C63.32,19.918 63.336,19.917 63.349,19.918C63.351,19.918 63.353,19.918 63.356,19.918C63.373,19.916 63.385,19.918 63.4,19.918C67.53,19.918 71.366,23.238 71.788,27.186C72.061,29.722 71.594,31.695 70.636,34.451C70.1,36.005 69.978,37.342 70.227,38.477C70.086,38.609 69.945,38.752 69.803,38.876C67.706,40.702 65.514,41.59 63.298,41.543C62.35,41.518 61.463,41.318 60.653,41.03C60.818,40.325 60.943,39.596 61.016,38.833C61.108,37.878 61.122,36.872 61.004,35.776C60.619,32.161 58.167,29.028 54.898,27.452C54.905,27.362 54.907,27.276 54.917,27.185ZM71.963,62.066C71.921,53.603 61.089,48.516 60.688,48.333C60.146,48.046 59.732,47.686 59.504,47.159C59.412,46.949 59.344,46.718 59.321,46.444C59.32,46.442 59.32,46.441 59.32,46.439C59.294,45.857 59.424,45.127 59.765,44.176C59.804,44.068 59.806,43.958 59.813,43.849C59.871,43.68 59.929,43.51 59.986,43.34C60.968,43.675 62.046,43.908 63.21,43.942C63.31,43.945 63.41,43.946 63.51,43.946C66.279,43.946 68.936,42.833 71.425,40.642C71.791,41.003 72.214,41.333 72.733,41.608C72.818,41.654 81.31,46.257 81.344,53.232L81.42,67.898L71.981,67.898C71.977,65.849 71.972,63.838 71.963,62.066Z" style="fill:rgb(34,0,72);fill-rule:nonzero;"/>
                <path d="M62.853,32.45L66.304,32.45C66.966,32.45 67.504,31.913 67.504,31.25C67.504,30.588 66.966,30.05 66.304,30.05L65.466,30.05L64.053,30.05L64.053,28.026L64.053,26.307C64.053,25.644 63.516,25.107 62.853,25.107C62.19,25.107 61.653,25.644 61.653,26.307L61.653,31.25C61.653,31.913 62.19,32.45 62.853,32.45Z" style="fill:rgb(34,0,72);fill-rule:nonzero;"/>
                <path d="M47.812,35.205L47.812,41.137C47.812,41.195 47.837,41.245 47.844,41.301C47.903,41.712 48.153,42.06 48.519,42.226C48.67,42.295 48.835,42.337 49.012,42.337L52.966,42.337C53.215,42.337 53.433,42.244 53.625,42.114C53.835,41.971 53.999,41.778 54.086,41.534C54.13,41.409 54.166,41.278 54.166,41.137C54.166,40.804 54.029,40.503 53.809,40.285C53.592,40.071 53.295,39.937 52.966,39.937L52.166,39.937L51.993,39.937L50.298,39.937L50.212,39.937L50.212,39.889L50.212,37.005L50.212,35.205C50.212,34.542 49.674,34.005 49.012,34.005C48.969,34.005 48.932,34.025 48.891,34.029C48.288,34.093 47.812,34.585 47.812,35.205Z" style="fill:rgb(34,0,72);fill-rule:nonzero;"/>
                <path d="M51.323,57.017C48.228,57.017 45.558,58.845 44.316,61.474C43.843,62.476 43.57,63.591 43.57,64.771C43.57,65.884 43.81,66.941 44.235,67.898C44.421,68.318 44.639,68.721 44.894,69.098C45.013,69.275 45.142,69.444 45.275,69.61L44.652,70.298L40.339,75.063C39.894,75.554 39.932,76.312 40.423,76.757C40.653,76.965 40.941,77.068 41.228,77.068C41.555,77.068 41.881,76.935 42.118,76.673L47.045,71.23C48.272,72.046 49.742,72.524 51.323,72.524C53.435,72.524 55.35,71.673 56.75,70.298C57.122,69.933 57.46,69.532 57.753,69.098C58.007,68.721 58.225,68.318 58.412,67.898C58.836,66.941 59.076,65.884 59.076,64.771C59.076,63.335 58.677,61.995 57.995,60.84C56.644,58.557 54.163,57.017 51.323,57.017ZM51.323,70.124C50.154,70.124 49.08,69.737 48.199,69.098C47.737,68.764 47.333,68.36 46.998,67.898C46.358,67.016 45.97,65.941 45.97,64.771C45.97,61.819 48.371,59.417 51.323,59.417C54.275,59.417 56.676,61.819 56.676,64.771C56.676,65.941 56.288,67.016 55.648,67.898C55.313,68.36 54.909,68.764 54.447,69.098C53.566,69.737 52.492,70.124 51.323,70.124Z" style="fill:rgb(34,0,72);fill-rule:nonzero;"/>
            </g>
        </g>
    </g>
</svg>
