<?xml version="1.0" encoding="UTF-8" standalone="no"?>
<svg
   xmlns:dc="http://purl.org/dc/elements/1.1/"
   xmlns:cc="http://creativecommons.org/ns#"
   xmlns:rdf="http://www.w3.org/1999/02/22-rdf-syntax-ns#"
   xmlns:svg="http://www.w3.org/2000/svg"
   xmlns="http://www.w3.org/2000/svg"
   xmlns:sodipodi="http://sodipodi.sourceforge.net/DTD/sodipodi-0.dtd"
   xmlns:inkscape="http://www.inkscape.org/namespaces/inkscape"
   aria-hidden="true"
   focusable="false"
   data-prefix="fal"
   data-icon="file-search"
   role="img"
   viewBox="0 0 640 512"
   class="svg-inline--fa fa-file-search fa-w-20 fa-9x"
   version="1.1"
   id="svg4"
   sodipodi:docname="search-file.svg"
   inkscape:version="0.92.4 (unknown)">
  <metadata
     id="metadata10">
    <rdf:RDF>
      <cc:Work
         rdf:about="">
        <dc:format>image/svg+xml</dc:format>
        <dc:type
           rdf:resource="http://purl.org/dc/dcmitype/StillImage" />
      </cc:Work>
    </rdf:RDF>
  </metadata>
  <defs
     id="defs8" />
  <sodipodi:namedview
     pagecolor="#ffffff"
     bordercolor="#666666"
     borderopacity="1"
     objecttolerance="10"
     gridtolerance="10"
     guidetolerance="10"
     inkscape:pageopacity="0"
     inkscape:pageshadow="2"
     inkscape:window-width="875"
     inkscape:window-height="480"
     id="namedview6"
     showgrid="false"
     inkscape:zoom="0.4609375"
     inkscape:cx="320"
     inkscape:cy="256"
     inkscape:window-x="67"
     inkscape:window-y="27"
     inkscape:window-maximized="0"
     inkscape:current-layer="svg4" />
  <path
     fill="currentColor"
     d="M605.65 487.05l-88.89-88.88c16.86-21.68 27.31-48.58 27.31-78.17a128 128 0 1 0-128 128c29.55 0 56.43-10.42 78.1-27.24l88.9 88.89a8 8 0 0 0 11.32 0l11.31-11.31a8 8 0 0 0-.05-11.29zM416.05 416a96 96 0 1 1 96-96 96.12 96.12 0 0 1-96 96zM368 480H80a16 16 0 0 1-16-16V48.09a16 16 0 0 1 16-16h176v104a23.93 23.93 0 0 0 24 24l136-.09v-28a48.23 48.23 0 0 0-14.1-34L318 14.1A48 48 0 0 0 284.08 0H80a48.16 48.16 0 0 0-48 48.09V464a48 48 0 0 0 48 48h288a47.87 47.87 0 0 0 45.15-32.29 159.9 159.9 0 0 1-33.92-4.36A15.91 15.91 0 0 1 368 480zM288 32.59a15.73 15.73 0 0 1 7.4 4.2l83.9 83.89a15.75 15.75 0 0 1 4.2 7.39H288z"
     class=""
     id="path2"
     style="fill:#220048;fill-opacity:1" />
</svg>
