<svg id="Capa_1" data-name="Capa 1" xmlns="http://www.w3.org/2000/svg" viewBox="0 0 57.54 13.58"><defs><style>.cls-1{fill:#7db1de;}</style></defs><title>logo wingu</title><path class="cls-1" d="M22.43,1.14a.56.56,0,0,1-.14.45,2.06,2.06,0,0,1-.42.25,1.52,1.52,0,0,0-.51.31,2.3,2.3,0,0,0-.36.51l-3.7,6.91c-.09.15-.19.31-.29.47a2.31,2.31,0,0,1-.36.43,2,2,0,0,1-.46.32,1.2,1.2,0,0,1-.55.12,1.13,1.13,0,0,1-.92-.41,2.6,2.6,0,0,1-.49-.91L13.1,5.76,11,9.59c-.09.15-.19.31-.29.46a2.43,2.43,0,0,1-.36.42,2,2,0,0,1-.46.32,1.2,1.2,0,0,1-.55.12,1,1,0,0,1-.5-.12,1.11,1.11,0,0,1-.34-.31,1.75,1.75,0,0,1-.23-.43,4.93,4.93,0,0,1-.16-.49L6.37,2.63a.83.83,0,0,0-.88-.68,2.68,2.68,0,0,0-1.05.26,5,5,0,0,0-1.11.67,4.44,4.44,0,0,0-.88.92,1.76,1.76,0,0,0-.36,1,.48.48,0,0,0,.17.44.93.93,0,0,0,.49.11h.41a1.38,1.38,0,0,1,1,.35,1.18,1.18,0,0,1,.39.93,1.49,1.49,0,0,1-.15.65,2,2,0,0,1-.94.94,1.5,1.5,0,0,1-.65.15,2.89,2.89,0,0,1-1.13-.22,2.64,2.64,0,0,1-.88-.59,2.58,2.58,0,0,1-.56-.9A3.12,3.12,0,0,1,0,5.55,3.26,3.26,0,0,1,.27,4.24,4.42,4.42,0,0,1,1,3.11a6,6,0,0,1,1-.92,8.16,8.16,0,0,1,1.13-.7A10.83,10.83,0,0,1,6,.48,15.35,15.35,0,0,1,9,.17l.51,0a3.11,3.11,0,0,1,.63.15,2.17,2.17,0,0,1,.54.27.49.49,0,0,1,.23.41.62.62,0,0,1-.15.43,2.7,2.7,0,0,1-.34.31,2.33,2.33,0,0,0-.34.32.7.7,0,0,0-.15.47c0,.06,0,.12,0,.2A.65.65,0,0,0,10,3l.75,3.4L11.8,4.47c.12-.22.24-.47.37-.75a2,2,0,0,0,.18-.81.89.89,0,0,0-.16-.56A3.13,3.13,0,0,0,11.85,2l-.34-.35a.65.65,0,0,1-.16-.46.64.64,0,0,1,.3-.56,2.21,2.21,0,0,1,.71-.3,4.32,4.32,0,0,1,.85-.12l.7,0H14l.71,0a7.26,7.26,0,0,1,1,.12,3.16,3.16,0,0,1,.86.28.58.58,0,0,1,.37.52.62.62,0,0,1-.17.46,4.27,4.27,0,0,1-.37.33,3.17,3.17,0,0,0-.37.35.7.7,0,0,0-.17.49.71.71,0,0,0,0,.28l.91,3.47L18,4.32a12.15,12.15,0,0,0,.55-1.14,2.37,2.37,0,0,0,.22-.85.6.6,0,0,0-.1-.36,1.86,1.86,0,0,0-.22-.24l-.22-.22a.5.5,0,0,1-.1-.33A.66.66,0,0,1,18.4.62,1.73,1.73,0,0,1,19,.32a3,3,0,0,1,.7-.14q.41,0,.71,0l.59,0a3.39,3.39,0,0,1,.68.13,1.54,1.54,0,0,1,.56.3A.66.66,0,0,1,22.43,1.14Z"/><path class="cls-1" d="M47.15,2.16a2.17,2.17,0,0,1-.32,1.16,2.91,2.91,0,0,1-.82.88,2.25,2.25,0,0,1,.58.65,1.68,1.68,0,0,1,.22.85A2.2,2.2,0,0,1,46.35,7,3.53,3.53,0,0,1,45.3,8a4.9,4.9,0,0,1-1.42.56,6.87,6.87,0,0,1-1.52.17,6.08,6.08,0,0,1-.65,0q-.31,0-.65-.1a.5.5,0,0,0-.14.12.27.27,0,0,0-.06.17.22.22,0,0,0,.16.22.85.85,0,0,0,.29.06q.73,0,1.44-.07t1.44-.07a2.19,2.19,0,0,1,1.38.45,1.55,1.55,0,0,1,.58,1.31,2,2,0,0,1-.46,1.33,3.27,3.27,0,0,1-1.14.85,5.79,5.79,0,0,1-1.46.45,8.49,8.49,0,0,1-1.41.13,8.58,8.58,0,0,1-.92-.07,6,6,0,0,1-1.13-.24,2.93,2.93,0,0,1-1-.49,1,1,0,0,1-.4-.81.94.94,0,0,1,.13-.49,1.5,1.5,0,0,1,.33-.39,1.55,1.55,0,0,1-.45-.48,1.22,1.22,0,0,1-.17-.63,1.37,1.37,0,0,1,.12-.57,2.13,2.13,0,0,1,.32-.51A2.41,2.41,0,0,1,39,8.5a2.29,2.29,0,0,1,.51-.27,2.39,2.39,0,0,1-.75-.8,2.11,2.11,0,0,1-.27-1.05A2.33,2.33,0,0,1,39,5,3.35,3.35,0,0,1,40,4a4.76,4.76,0,0,1,1.4-.54,6.88,6.88,0,0,1,1.46-.17,5.45,5.45,0,0,1,.6,0,5.45,5.45,0,0,0,.61,0,2.44,2.44,0,0,0,.54-.07,2.23,2.23,0,0,0,.56-.21,1.39,1.39,0,0,0,.44-.36.79.79,0,0,0,.17-.51.75.75,0,0,0-.19-.51.64.64,0,0,0-.51-.22,1.09,1.09,0,0,0-.36.08c-.15.06-.23.13-.26.23a1.36,1.36,0,0,1-.27.59.75.75,0,0,1-.6.22.85.85,0,0,1-.88-.88,1.37,1.37,0,0,1,.2-.72,2,2,0,0,1,.51-.56,2.33,2.33,0,0,1,.69-.35A2.42,2.42,0,0,1,44.86,0a2.31,2.31,0,0,1,.86.17,2.46,2.46,0,0,1,.73.45A2.12,2.12,0,0,1,47,1.3,2,2,0,0,1,47.15,2.16Zm-4.09,9.59c0-.09-.06-.14-.17-.15l-.26,0H40.45l-.2,0a.46.46,0,0,0-.17.07.17.17,0,0,0-.07.15.32.32,0,0,0,.17.27,1.46,1.46,0,0,0,.4.17,3.29,3.29,0,0,0,.45.08l.34,0,.4,0a5.13,5.13,0,0,0,.56-.12,2.3,2.3,0,0,0,.5-.19Q43.06,11.92,43.06,11.75Zm.22-6.32c0-.07,0-.15,0-.24a1.15,1.15,0,0,0,0-.27.6.6,0,0,0-.12-.22.28.28,0,0,0-.22-.09.52.52,0,0,0-.42.22,1.73,1.73,0,0,0-.27.53A3.92,3.92,0,0,0,42,6,3.48,3.48,0,0,0,42,6.5q0,.1,0,.24A1,1,0,0,0,42,7a.51.51,0,0,0,.12.21.29.29,0,0,0,.22.08.52.52,0,0,0,.42-.22,1.71,1.71,0,0,0,.27-.52,3.82,3.82,0,0,0,.15-.61A3.3,3.3,0,0,0,43.27,5.44Z"/><path class="cls-1" d="M57.54,9.05a.92.92,0,0,1-.43.69,4.83,4.83,0,0,1-1,.61,8.27,8.27,0,0,1-1.21.43,4,4,0,0,1-1,.17.9.9,0,0,1-.54-.15,1,1,0,0,1-.31-.37,1.75,1.75,0,0,1-.15-.51,3.79,3.79,0,0,1,0-.55V9.25a6.23,6.23,0,0,1-.61.6,5.62,5.62,0,0,1-.75.54,5,5,0,0,1-.81.4,2.3,2.3,0,0,1-.83.16,1.62,1.62,0,0,1-1.29-.48,2,2,0,0,1-.41-1.33,3.75,3.75,0,0,1,.07-.73l.43-2.14a.59.59,0,0,0,0-.13V6a.82.82,0,0,0-.06-.33c0-.09-.14-.13-.31-.13l-.16,0-.16,0a.43.43,0,0,1-.35-.17.55.55,0,0,1-.13-.35.53.53,0,0,1,.13-.33,7.21,7.21,0,0,1,.68-.56,5.94,5.94,0,0,1,.85-.51,6.4,6.4,0,0,1,.91-.37,2.84,2.84,0,0,1,.86-.15,1.23,1.23,0,0,1,.91.33,1.23,1.23,0,0,1,.33.91,1.91,1.91,0,0,1,0,.43l-.55,3.07a.86.86,0,0,0,0,.2.66.66,0,0,0,0,.24c0,.07.1.11.21.11a.7.7,0,0,0,.46-.19,2.18,2.18,0,0,0,.36-.37A2.6,2.6,0,0,0,53,7.15a4.77,4.77,0,0,0,.2-.78l.27-1.91a.92.92,0,0,1,.32-.58,2,2,0,0,1,.62-.36,3.35,3.35,0,0,1,.75-.18,5.5,5.5,0,0,1,.69,0,1.46,1.46,0,0,1,.7.17.63.63,0,0,1,.32.61.28.28,0,0,1,0,.12l-.48,3.38,0,.37a3,3,0,0,0,0,.32,1.05,1.05,0,0,0,0,.28.2.2,0,0,0,.22.15.69.69,0,0,0,.26,0,.69.69,0,0,1,.26-.05.46.46,0,0,1,.34.14A.45.45,0,0,1,57.54,9.05Z"/><path class="cls-1" d="M27.74,8.95a.78.78,0,0,1-.25.53c-.17.18-.32.33-.45.45a3.62,3.62,0,0,1-1.36.76,5.28,5.28,0,0,1-1.56.23,1.41,1.41,0,0,1-1-.35,1.27,1.27,0,0,1-.37-1V9.42a.88.88,0,0,1,0-.17l.43-3.05a1,1,0,0,1,0-.15c0-.07,0-.13,0-.2s0-.13,0-.18,0-.09,0-.1-.06-.13-.18-.13a1.06,1.06,0,0,1-.56-.17.54.54,0,0,1-.27-.5.63.63,0,0,1,.23-.46,2.66,2.66,0,0,1,.61-.41,5.21,5.21,0,0,1,.82-.33l.88-.25a7.59,7.59,0,0,1,.79-.16,4.3,4.3,0,0,1,.56,0,.9.9,0,0,1,.65.24A.85.85,0,0,1,27,4s0,.1,0,.22,0,.27-.07.48l-.4,2.8-.05.37a3.06,3.06,0,0,0,0,.32,1.06,1.06,0,0,0,0,.28.2.2,0,0,0,.22.15.69.69,0,0,0,.26,0,.69.69,0,0,1,.26,0,.5.5,0,0,1,.34.12A.39.39,0,0,1,27.74,8.95Zm-.43-7.73A1,1,0,0,1,27,2a2.82,2.82,0,0,1-.79.55,4.74,4.74,0,0,1-1,.33,3.9,3.9,0,0,1-.84.11,2.93,2.93,0,0,1-.47,0,1.59,1.59,0,0,1-.47-.15,1,1,0,0,1-.35-.28A.69.69,0,0,1,23,2a.89.89,0,0,1,.21-.57A2.36,2.36,0,0,1,23.68,1a3.6,3.6,0,0,1,.64-.34,4.75,4.75,0,0,1,.58-.2,2.23,2.23,0,0,1,.5-.11l.5,0,.47,0a1.52,1.52,0,0,1,.46.13.94.94,0,0,1,.34.28A.72.72,0,0,1,27.31,1.22Z"/><path class="cls-1" d="M37.32,3.62A1.56,1.56,0,0,0,36,3.13a3.13,3.13,0,0,0-1.59.43,6,6,0,0,0-1.31,1c0-.1,0-.2,0-.31a2,2,0,0,0,0-.31.85.85,0,0,0-.25-.64.89.89,0,0,0-.65-.24,5.52,5.52,0,0,0-.94.12,10.74,10.74,0,0,0-1.29.34,5.41,5.41,0,0,0-1.15.52q-.5.31-.5.67s.09.39.28.5a1.1,1.1,0,0,0,.56.17q.18,0,.18.13s0,.09,0,.19,0,.19,0,.26l-.5,3.38s0,.07,0,.15l0,.24c0,.08,0,.16,0,.22s0,.11,0,.12a.57.57,0,0,0,.15.41,1,1,0,0,0,.36.25,1.57,1.57,0,0,0,.46.12l.45,0,.59,0a3.68,3.68,0,0,0,.66-.09,1.54,1.54,0,0,0,.56-.25.71.71,0,0,0,.29-.49l.45-3.2a1,1,0,0,1,.15-.39A2.56,2.56,0,0,1,33.27,6a2.51,2.51,0,0,1,.39-.35A.67.67,0,0,1,34,5.53a.24.24,0,0,1,.24.12.64.64,0,0,1,.06.27.51.51,0,0,1,0,.15l-.4,2.78h0l-.09.59s0,.07,0,.14l0,.22c0,.08,0,.15,0,.21s0,.1,0,.11a.53.53,0,0,0,.14.38,1,1,0,0,0,.34.23,1.49,1.49,0,0,0,.43.11l.42,0,.55,0a3.53,3.53,0,0,0,.62-.08,1.42,1.42,0,0,0,.53-.23A.67.67,0,0,0,37,10.1l.17-1.21v0l.45-3.2a5,5,0,0,0,.05-.7A2.09,2.09,0,0,0,37.32,3.62Z"/></svg>