<?xml version="1.0" encoding="UTF-8"?>
<svg width="389px" height="64px" viewBox="0 0 389 64" version="1.1" xmlns="http://www.w3.org/2000/svg" xmlns:xlink="http://www.w3.org/1999/xlink">
    <!-- Generator: sketchtool 59.1 (101010) - https://sketch.com -->
    <title>9A0729AA-F018-4FDE-9C78-DF4A04585936</title>
    <desc>Created with sketchtool.</desc>
    <g id="UI-v3" stroke="none" stroke-width="1" fill="none" fill-rule="evenodd">
        <g id="Desktop---Landing---etapa-1" transform="translate(-446.000000, -147.000000)">
            <g id="logo" transform="translate(446.000000, 147.000000)">
                <path d="M9.384,19.128 L15.144,19.128 L22.312,40.568 L24.072,40.888 L24.072,43 L13.992,43 L13.992,40.888 L16.264,40.568 L15.176,36.728 L7.528,36.728 L6.44,40.6 L8.936,40.888 L8.936,43 L0.424,43 L0.392,40.888 L2.248,40.536 L9.384,19.128 Z M11.752,24.696 L11.272,22.456 L10.76,24.728 L8.168,34.264 L14.504,34.264 L11.752,24.696 Z M25.064,40.888 L26.76,40.6 L26.76,28.568 L24.872,27.992 L24.872,25.496 L30.696,24.792 L30.952,24.92 L31.592,25.816 L31.592,27.416 C32.2746701,26.7119965 33.2773267,26.1093358 34.6,25.608 C35.9226733,25.1066642 37.0533286,24.856 37.992,24.856 C39.1440058,24.856 40.0773298,25.0479981 40.792,25.432 C41.5066702,25.8160019 42.0453315,26.4133293 42.408,27.224 C43.133337,26.5413299 44.0453278,25.9760022 45.144,25.528 C46.2426722,25.0799978 47.3573277,24.856 48.488,24.856 C50.3653427,24.856 51.7146626,25.3999946 52.536,26.488 C53.3573374,27.5760054 53.768,29.357321 53.768,31.832 L53.768,40.6 L55.688,40.888 L55.688,43 L47.016,43 L47.016,40.888 L48.456,40.6 L48.456,31.96 C48.456,30.4239923 48.2800018,29.3573363 47.928,28.76 C47.5759982,28.1626637 46.9306714,27.864 45.992,27.864 C45.0106618,27.864 43.986672,28.2799958 42.92,29.112 C43.0480006,29.9013373 43.112,30.8079949 43.112,31.832 L43.112,40.6 L44.904,40.888 L44.904,43 L36.168,43 L36.168,40.888 L37.768,40.6 L37.768,31.864 C37.768,30.3493258 37.6026683,29.3040029 37.272,28.728 C36.9413317,28.1519971 36.3173379,27.864 35.4,27.864 C34.8026637,27.864 34.2106696,27.997332 33.624,28.264 C33.0373304,28.530668 32.5306688,28.8559981 32.104,29.24 L32.104,40.6 L33.832,40.888 L33.832,43 L25.064,43 L25.064,40.888 Z M65.992,43.352 C63.0693187,43.352 60.904007,42.5253416 59.496,40.872 C58.087993,39.2186584 57.384,36.962681 57.384,34.104 C57.384,32.162657 57.746663,30.488007 58.472,29.08 C59.197337,27.671993 60.2159934,26.6000037 61.528,25.864 C62.8400066,25.1279963 64.3813245,24.76 66.152,24.76 C68.3920112,24.76 70.1039941,25.3253277 71.288,26.456 C72.4720059,27.5866723 73.0853331,29.1866563 73.128,31.256 C73.128,32.6213402 73.032001,33.7199958 72.84,34.552 L62.824,34.552 C62.9306672,36.3653424 63.3733294,37.7466619 64.152,38.696 C64.9306706,39.6453381 66.023993,40.12 67.432,40.12 C68.2213373,40.12 69.0479957,39.986668 69.912,39.72 C70.7760043,39.453332 71.474664,39.149335 72.008,38.808 L72.904,40.76 C72.3493306,41.3786698 71.40534,41.9653306 70.072,42.52 C68.73866,43.0746694 67.3786736,43.352 65.992,43.352 Z M68.04,32.44 L68.072,31.096 C68.072,29.7519933 67.8906685,28.7280035 67.528,28.024 C67.1653315,27.3199965 66.546671,26.968 65.672,26.968 C64.7759955,26.968 64.0826691,27.3573294 63.592,28.136 C63.1013309,28.9146706 62.8346669,30.3493229 62.792,32.44 L68.04,32.44 Z M62.536,21.048 L68.104,14.2 L71.176,16.952 C70.6213306,17.8906714 69.5973408,18.9733272 68.104,20.2 L67.520318,20.6681973 C66.2852577,21.633936 65.2424931,22.2831983 64.392,22.616 L62.536,21.048 Z M75.496,40.888 L77.448,40.6 L77.448,28.568 L75.56,27.992 L75.56,25.496 L80.872,24.792 L80.968,24.792 L81.864,25.464 L81.864,26.232 L81.768,28.888 L81.864,28.888 C82.0133341,28.3973309 82.354664,27.8266699 82.888,27.176 C83.421336,26.5253301 84.0986626,25.9600024 84.92,25.48 C85.7413374,24.9999976 86.6319952,24.76 87.592,24.76 C88.1466694,24.76 88.5733318,24.8346659 88.872,24.984 L88.872,30.552 C88.530665,30.2959987 88.1626686,30.0933341 87.768,29.944 C87.3733314,29.7946659 86.8666698,29.72 86.248,29.72 C85.4799962,29.72 84.7866698,29.8213323 84.168,30.024 C83.5493302,30.2266677 83.0586685,30.4559987 82.696,30.712 L82.696,40.6 L86.216,40.92 L86.216,43 L75.496,43 L75.496,40.888 Z M94.728,22.456 C93.8959958,22.456 93.2240026,22.2106691 92.712,21.72 C92.1999974,21.2293309 91.944,20.6000038 91.944,19.832 C91.944,18.9359955 92.2266638,18.2000029 92.792,17.624 C93.3573362,17.0479971 94.1199952,16.76 95.08,16.76 C96.0400048,16.76 96.7759974,17.0053309 97.288,17.496 C97.8000026,17.9866691 98.056,18.6159962 98.056,19.384 C98.056,20.3013379 97.7680029,21.0426638 97.192,21.608 C96.6639974,22.1262248 95.9388188,22.4069264 95.0164455,22.4501112 L94.728,22.456 Z M92.776,28.568 L90.632,27.96 L90.632,25.56 L97.032,24.792 L97.096,24.792 L98.088,25.464 L98.088,40.6 L100.008,40.888 L100.008,43 L90.792,43 L90.792,40.888 L92.776,40.6 L92.776,28.568 Z M101.864,34.232 C101.864,32.3333238 102.247996,30.6693405 103.016,29.24 C103.784004,27.8106595 104.861326,26.7066706 106.248,25.928 C107.634674,25.1493294 109.234658,24.76 111.048,24.76 C111.944004,24.76 112.71733,24.8186661 113.368,24.936 C114.01867,25.0533339 114.68533,25.2186656 115.368,25.432 L116.053828,25.615309 C116.281647,25.6732512 116.437037,25.7081481 116.52,25.72 L116.296,31.512 L113.064,31.512 L112.232,27.832 C112.168,27.5546653 111.992001,27.3573339 111.704,27.24 C111.415999,27.1226661 111.069335,27.064 110.664,27.064 C109.661328,27.064 108.877336,27.5546618 108.312,28.536 C107.746664,29.5173382 107.464,31.1493219 107.464,33.432 C107.464,35.6080109 107.82133,37.2773275 108.536,38.44 C109.25067,39.6026725 110.215994,40.184 111.432,40.184 C113.010675,40.184 114.461327,39.7786707 115.784,38.968 L116.648,40.856 C116.135997,41.4320029 115.293339,41.9919973 114.12,42.536 C112.946661,43.0800027 111.64534,43.352 110.216,43.352 C107.421319,43.352 105.330674,42.5253416 103.944,40.872 C102.557326,39.2186584 101.864,37.0053472 101.864,34.232 Z M118.504,37.88 C118.504,36.0026573 119.458657,34.5626717 121.368,33.56 C123.277343,32.5573283 125.789318,32.0453334 128.904,32.024 L128.904,31.384 C128.904,30.6159962 128.818668,30.0080022 128.648,29.56 C128.477332,29.1119978 128.168002,28.7760011 127.72,28.552 C127.271998,28.3279989 126.610671,28.216 125.736,28.216 C124.690661,28.216 123.757337,28.3386654 122.936,28.584 C122.114663,28.8293346 121.256004,29.1546646 120.36,29.56 L119.272,27.256 C119.613335,26.9786653 120.167996,26.6426686 120.936,26.248 C121.704004,25.8533314 122.626661,25.5120014 123.704,25.224 C124.781339,24.9359986 125.906661,24.792 127.08,24.792 C128.786675,24.792 130.125328,25.0159978 131.096,25.464 C132.066672,25.9120022 132.759998,26.6053286 133.176,27.544 C133.592002,28.4826714 133.8,29.7626586 133.8,31.384 L133.8,40.888 L135.464,40.888 L135.464,42.904 C134.973331,43.0106672 134.290671,43.1173328 133.416,43.224 C132.541329,43.3306672 131.79467,43.384 131.176,43.384 C130.365329,43.384 129.826668,43.2666678 129.56,43.032 C129.293332,42.7973322 129.16,42.3280035 129.16,41.624 L129.16,40.888 C128.626664,41.5280032 127.912004,42.0986642 127.016,42.6 C126.119996,43.1013358 125.085339,43.352 123.912,43.352 C122.909328,43.352 121.997337,43.1333355 121.176,42.696 C120.354663,42.2586645 119.704002,41.6293374 119.224,40.808 C118.743998,39.9866626 118.504,39.0106723 118.504,37.88 Z M126.408,40.408 C126.792002,40.408 127.218664,40.2960011 127.688,40.072 C128.157336,39.8479989 128.562665,39.5760016 128.904,39.256 L128.904,34.168 C127.239992,34.168 126.008,34.4666637 125.208,35.064 C124.407996,35.6613363 124.008,36.4293286 124.008,37.368 C124.008,38.3280048 124.221331,39.074664 124.648,39.608 C125.074669,40.141336 125.66133,40.408 126.408,40.408 Z M147.016,21.912 L144.616,21.464 L144.616,19.224 L155.528,19.224 L155.528,21.464 L152.488,21.912 L152.488,40.504 L158.504,40.184 L160.584,33.848 L163.592,34.232 L162.664,43 L144.552,43 L144.552,40.888 L147.016,40.568 L147.016,21.912 Z M164.84,37.88 C164.84,36.0026573 165.794657,34.5626717 167.704,33.56 C169.613343,32.5573283 172.125318,32.0453334 175.24,32.024 L175.24,31.384 C175.24,30.6159962 175.154668,30.0080022 174.984,29.56 C174.813332,29.1119978 174.504002,28.7760011 174.056,28.552 C173.607998,28.3279989 172.946671,28.216 172.072,28.216 C171.026661,28.216 170.093337,28.3386654 169.272,28.584 C168.450663,28.8293346 167.592004,29.1546646 166.696,29.56 L165.608,27.256 C165.949335,26.9786653 166.503996,26.6426686 167.272,26.248 C168.040004,25.8533314 168.962661,25.5120014 170.04,25.224 C171.117339,24.9359986 172.242661,24.792 173.416,24.792 C175.122675,24.792 176.461328,25.0159978 177.432,25.464 C178.402672,25.9120022 179.095998,26.6053286 179.512,27.544 C179.928002,28.4826714 180.136,29.7626586 180.136,31.384 L180.136,40.888 L181.8,40.888 L181.8,42.904 C181.309331,43.0106672 180.626671,43.1173328 179.752,43.224 C178.877329,43.3306672 178.13067,43.384 177.512,43.384 C176.701329,43.384 176.162668,43.2666678 175.896,43.032 C175.629332,42.7973322 175.496,42.3280035 175.496,41.624 L175.496,40.888 C174.962664,41.5280032 174.248004,42.0986642 173.352,42.6 C172.455996,43.1013358 171.421339,43.352 170.248,43.352 C169.245328,43.352 168.333337,43.1333355 167.512,42.696 C166.690663,42.2586645 166.040002,41.6293374 165.56,40.808 C165.079998,39.9866626 164.84,39.0106723 164.84,37.88 Z M172.744,40.408 C173.128002,40.408 173.554664,40.2960011 174.024,40.072 C174.493336,39.8479989 174.898665,39.5760016 175.24,39.256 L175.24,34.168 C173.575992,34.168 172.344,34.4666637 171.544,35.064 C170.743996,35.6613363 170.344,36.4293286 170.344,37.368 C170.344,38.3280048 170.557331,39.074664 170.984,39.608 C171.410669,40.141336 171.99733,40.408 172.744,40.408 Z M188.936,43.288 C187.527993,43.288 186.488003,42.9626699 185.816,42.312 C185.143997,41.6613301 184.808,40.6533402 184.808,39.288 L184.808,27.896 L182.856,27.896 L182.856,26.04 L183.496,25.784 C184.008003,25.6133325 184.455998,25.432001 184.84,25.24 C185.266669,24.8346646 185.607999,24.3013366 185.864,23.64 C186.184002,22.8719962 186.535998,21.7946736 186.92,20.408 L189.896,20.408 L190.088,25.208 L194.664,25.208 L194.664,27.896 L190.152,27.896 L190.152,36.376 C190.152,37.5493392 190.184,38.3706643 190.248,38.84 C190.312,39.3093357 190.434666,39.6133326 190.616,39.752 C190.797334,39.8906674 191.133331,39.96 191.624,39.96 C192.626672,39.96 193.575996,39.789335 194.472,39.448 L195.144,41.464 C194.546664,41.9546691 193.661339,42.3813315 192.488,42.744 C191.314661,43.1066685 190.130673,43.288 188.936,43.288 Z M200.488,22.456 C199.655996,22.456 198.984003,22.2106691 198.472,21.72 C197.959997,21.2293309 197.704,20.6000038 197.704,19.832 C197.704,18.9359955 197.986664,18.2000029 198.552,17.624 C199.117336,17.0479971 199.879995,16.76 200.84,16.76 C201.800005,16.76 202.535997,17.0053309 203.048,17.496 C203.560003,17.9866691 203.816,18.6159962 203.816,19.384 C203.816,20.3013379 203.528003,21.0426638 202.952,21.608 C202.423997,22.1262248 201.698819,22.4069264 200.776445,22.4501112 L200.488,22.456 Z M198.536,28.568 L196.392,27.96 L196.392,25.56 L202.792,24.792 L202.856,24.792 L203.848,25.464 L203.848,40.6 L205.768,40.888 L205.768,43 L196.552,43 L196.552,40.888 L198.536,40.6 L198.536,28.568 Z M238.216,24.792 C239.922675,24.792 241.261328,25.0159978 242.232,25.464 C243.202672,25.9120022 243.895998,26.6053286 244.312,27.544 C244.728002,28.4826714 244.936,29.7626586 244.936,31.384 L244.936,40.888 L246.6,40.888 L246.6,42.904 C246.109331,43.0106672 245.426671,43.1173328 244.552,43.224 C243.677329,43.3306672 242.93067,43.384 242.312,43.384 C241.501329,43.384 240.962668,43.2666678 240.696,43.032 C240.429332,42.7973322 240.296,42.3280035 240.296,41.624 L240.296,40.888 C239.762664,41.5280032 239.048004,42.0986642 238.152,42.6 C237.255996,43.1013358 236.221339,43.352 235.048,43.352 C234.045328,43.352 233.133337,43.1333355 232.312,42.696 C231.490663,42.2586645 230.840002,41.6293374 230.36,40.808 C229.879998,39.9866626 229.64,39.0106723 229.64,37.88 C229.64,36.0026573 230.594657,34.5626717 232.504,33.56 C234.413343,32.5573283 236.925318,32.0453334 240.04,32.024 L240.04,31.384 C240.04,30.6159962 239.954668,30.0080022 239.784,29.56 C239.613332,29.1119978 239.304002,28.7760011 238.856,28.552 C238.407998,28.3279989 237.746671,28.216 236.872,28.216 C235.826661,28.216 234.893337,28.3386654 234.072,28.584 C233.250663,28.8293346 232.392004,29.1546646 231.496,29.56 L230.408,27.256 C230.749335,26.9786653 231.303996,26.6426686 232.072,26.248 C232.840004,25.8533314 233.762661,25.5120014 234.84,25.224 C235.917339,24.9359986 237.042661,24.792 238.216,24.792 Z M213.8,24.792 L214.632,25.464 L214.632,26.648 L214.6,27.384 C215.34667,26.6799965 216.295994,26.0826691 217.448,25.592 C218.600006,25.1013309 219.805327,24.856 221.064,24.856 C222.344006,24.856 223.351996,25.085331 224.088,25.544 C224.824004,26.002669 225.357332,26.7333283 225.688,27.736 C226.018668,28.7386717 226.184,30.1039914 226.184,31.832 L226.184,40.6 L227.976,40.856 L227.976,43 L219.272,43 L219.272,40.888 L220.84,40.6 L220.84,31.864 C220.84,30.8399949 220.770667,30.0453362 220.632,29.48 C220.493333,28.9146638 220.253335,28.5040013 219.912,28.248 C219.570665,27.9919987 219.080003,27.864 218.44,27.864 C217.458662,27.864 216.34934,28.3226621 215.112,29.24 L215.112,40.6 L216.872,40.888 L216.872,43 L208.008,43 L208.008,40.888 L209.768,40.6 L209.768,28.568 L207.88,27.992 L207.88,25.496 L213.704,24.792 L213.8,24.792 Z M240.04,34.168 C238.375992,34.168 237.144,34.4666637 236.344,35.064 C235.543996,35.6613363 235.144,36.4293286 235.144,37.368 C235.144,38.3280048 235.357331,39.074664 235.784,39.608 C236.210669,40.141336 236.79733,40.408 237.544,40.408 C237.928002,40.408 238.354664,40.2960011 238.824,40.072 C239.199469,39.8927991 239.533973,39.6828807 239.82752,39.4422405 L240.04,39.256 L240.04,34.168 Z" id="AméricaLatina" fill="#00376F" fill-rule="nonzero"></path>
                <path d="M258.424,43.352 C254.839982,43.352 252.184009,42.2693442 250.456,40.104 C248.727991,37.9386558 247.864,34.9573523 247.864,31.16 C247.864,28.7066544 248.317329,26.5573426 249.224,24.712 C250.130671,22.8666574 251.405325,21.4426717 253.048,20.44 C254.690675,19.4373283 256.610656,18.936 258.808,18.936 C262.477352,18.936 265.181325,19.9546565 266.92,21.992 C268.658675,24.0293435 269.528,26.9359811 269.528,30.712 C269.528,33.2080125 269.069338,35.4106571 268.152,37.32 C267.234662,39.2293429 265.938675,40.7119947 264.264,41.768 C262.589325,42.8240053 260.642678,43.352 258.424,43.352 Z M258.712,21.048 C257.175992,21.048 255.986671,21.8906582 255.144,23.576 C254.301329,25.2613418 253.88,27.7786499 253.88,31.128 C253.88,34.5413504 254.295996,37.0746584 255.128,38.728 C255.960004,40.3813416 257.143992,41.208 258.68,41.208 C260.194674,41.208 261.373329,40.3066757 262.216,38.504 C263.058671,36.7013243 263.48,34.1146835 263.48,30.744 C263.48,27.3306496 263.074671,24.861341 262.264,23.336 C261.453329,21.810659 260.269341,21.048 258.712,21.048 Z M273.848,27.896 L271.352,27.896 L271.352,25.912 L273.848,25.272 L273.848,23.928 C273.848,22.4986595 274.231996,21.1973392 275,20.024 C275.768004,18.8506608 276.797327,17.9226701 278.088,17.24 C279.378673,16.5573299 280.770659,16.216 282.264,16.216 C283.053337,16.216 283.767997,16.3226656 284.408,16.536 L284.408,21.176 C284.173332,20.9199987 283.71467,20.6693346 283.032,20.424 C282.34933,20.1786654 281.677337,20.056 281.016,20.056 C280.311996,20.056 279.810668,20.2373315 279.512,20.6 C279.213332,20.9626685 279.064,21.5599958 279.064,22.392 L279.064,25.24 L282.904,25.24 L282.904,27.896 L279.064,27.896 L279.064,40.6 L282.296,40.888 L282.296,43 L271.384,43 L271.384,40.888 L273.848,40.6 L273.848,27.896 Z M287.064,27.896 L284.568,27.896 L284.568,25.912 L287.064,25.272 L287.064,23.928 C287.064,22.4986595 287.447996,21.1973392 288.216,20.024 C288.984004,18.8506608 290.013327,17.9226701 291.304,17.24 C292.594673,16.5573299 293.986659,16.216 295.48,16.216 C296.269337,16.216 296.983997,16.3226656 297.624,16.536 L297.624,21.176 C297.389332,20.9199987 296.93067,20.6693346 296.248,20.424 C295.56533,20.1786654 294.893337,20.056 294.232,20.056 C293.527996,20.056 293.026668,20.2373315 292.728,20.6 C292.429332,20.9626685 292.28,21.5599958 292.28,22.392 L292.28,25.24 L296.12,25.24 L296.12,27.896 L292.28,27.896 L292.28,40.6 L295.512,40.888 L295.512,43 L284.6,43 L284.6,40.888 L287.064,40.6 L287.064,27.896 Z M302.168,40.344 C302.317334,40.5786678 302.663997,40.791999 303.208,40.984 C303.752003,41.176001 304.301331,41.272 304.856,41.272 C305.730671,41.272 306.397331,41.0853352 306.856,40.712 C307.314669,40.3386648 307.544,39.8533363 307.544,39.256 C307.544,38.6159968 307.245336,38.0880021 306.648,37.672 C306.142562,37.3199982 305.362197,36.9030864 304.30689,36.4212553 L302.488,35.608 C301.101326,34.9893302 300.061337,34.2373378 299.368,33.352 C298.674663,32.4666622 298.328,31.3413402 298.328,29.976 C298.328,28.9946618 298.615997,28.1146706 299.192,27.336 C299.768003,26.5573294 300.599995,25.9440022 301.688,25.496 C302.776005,25.0479978 304.055993,24.824 305.528,24.824 C306.552005,24.824 307.43733,24.8879994 308.184,25.016 C308.93067,25.1440006 309.687996,25.303999 310.456,25.496 C310.968003,25.6453341 311.351999,25.7306666 311.608,25.752 L311.608,30.104 L308.76,30.104 L307.928,27.64 C307.821333,27.447999 307.565335,27.2720008 307.16,27.112 C306.754665,26.9519992 306.296003,26.872 305.784,26.872 C304.973329,26.872 304.333336,27.0479982 303.864,27.4 C303.394664,27.7520018 303.16,28.2266637 303.16,28.824 C303.16,29.5066701 303.426664,30.0453314 303.96,30.44 C304.493336,30.8346686 305.346661,31.298664 306.52,31.832 L307.192,32.12 C308.920009,32.845337 310.274662,33.6293291 311.256,34.472 C312.237338,35.3146709 312.728,36.4719926 312.728,37.944 C312.728,39.5226746 312.098673,40.8186616 310.84,41.832 C309.581327,42.8453384 307.725346,43.352 305.272,43.352 C304.141328,43.352 303.138671,43.2613342 302.264,43.08 C301.389329,42.8986658 300.429339,42.6586682 299.384,42.36 L298.328,42.072 L298.328,37.816 L301.368,37.816 L302.168,40.344 Z M316.504,19.896 L314.232,19.48 L314.232,17.528 L320.664,16.76 L320.76,16.76 L321.688,17.432 L321.72,24.376 L321.464,27.224 C322.125337,26.6053302 322.999995,26.0560024 324.088,25.576 C325.176005,25.0959976 326.37066,24.856 327.672,24.856 C329.016007,24.856 330.06133,25.1013309 330.808,25.592 C331.55467,26.0826691 332.077332,26.8293283 332.376,27.832 C332.674668,28.8346717 332.824,30.1679917 332.824,31.832 L332.824,40.6 L334.776,40.888 L334.776,43 L325.88,43 L325.88,40.888 L327.576,40.6 L327.576,31.864 C327.576,30.3706592 327.416002,29.3306696 327.096,28.744 C326.775998,28.1573304 326.125338,27.864 325.144,27.864 C324.546664,27.864 323.949336,27.997332 323.352,28.264 C322.754664,28.530668 322.253335,28.8559981 321.848,29.24 L321.848,40.6 L323.608,40.888 L323.608,43 L314.84,43 L314.84,40.888 L316.504,40.6 L316.504,19.896 Z M336.824,34.2 C336.824,32.1519898 337.229329,30.4186738 338.04,29 C338.850671,27.5813262 339.943993,26.5200035 341.32,25.816 C342.696007,25.1119965 344.205325,24.76 345.848,24.76 C348.536013,24.76 350.642659,25.5653253 352.168,27.176 C353.693341,28.7866747 354.456,31.0319856 354.456,33.912 C354.456,36.0240106 354.050671,37.783993 353.24,39.192 C352.429329,40.600007 351.34134,41.6453299 349.976,42.328 C348.61066,43.0106701 347.085342,43.352 345.4,43.352 C342.73332,43.352 340.637341,42.5466747 339.112,40.936 C337.586659,39.3253253 336.824,37.0800144 336.824,34.2 Z M345.72,41.112 C346.744005,41.112 347.506664,40.5626722 348.008,39.464 C348.509336,38.3653278 348.76,36.6426784 348.76,34.296 C348.76,31.7999875 348.520002,29.9600059 348.04,28.776 C347.559998,27.5919941 346.754672,27 345.624,27 C343.533323,27 342.488,29.2719773 342.488,33.816 C342.488,36.290679 342.743997,38.1253274 343.256,39.32 C343.768003,40.5146726 344.589328,41.112 345.72,41.112 Z M381.048,24.76 C383.288011,24.76 384.999994,25.3253277 386.184,26.456 C387.368006,27.5866723 387.981333,29.1866563 388.024,31.256 C388.024,32.6213402 387.928001,33.7199958 387.736,34.552 L377.72,34.552 C377.826667,36.3653424 378.269329,37.7466619 379.048,38.696 C379.826671,39.6453381 380.919993,40.12 382.328,40.12 C383.117337,40.12 383.943996,39.986668 384.808,39.72 C385.672004,39.453332 386.370664,39.149335 386.904,38.808 L387.8,40.76 C387.245331,41.3786698 386.30134,41.9653306 384.968,42.52 C383.63466,43.0746694 382.274674,43.352 380.888,43.352 C377.965319,43.352 375.800007,42.5253416 374.392,40.872 C372.983993,39.2186584 372.28,36.962681 372.28,34.104 C372.28,32.162657 372.642663,30.488007 373.368,29.08 C374.093337,27.671993 375.111993,26.6000037 376.424,25.864 C377.736007,25.1279963 379.277324,24.76 381.048,24.76 Z M369.4,24.76 C369.954669,24.76 370.381332,24.8346659 370.68,24.984 L370.68,30.552 C370.338665,30.2959987 369.970669,30.0933341 369.576,29.944 C369.181331,29.7946659 368.67467,29.72 368.056,29.72 C367.287996,29.72 366.59467,29.8213323 365.976,30.024 C365.35733,30.2266677 364.866668,30.4559987 364.504,30.712 L364.504,40.6 L368.024,40.92 L368.024,43 L357.304,43 L357.304,40.888 L359.256,40.6 L359.256,28.568 L357.368,27.992 L357.368,25.496 L362.68,24.792 L362.776,24.792 L363.672,25.464 L363.672,26.232 L363.576,28.888 L363.672,28.888 C363.821334,28.3973309 364.162664,27.8266699 364.696,27.176 C365.229336,26.5253301 365.906663,25.9600024 366.728,25.48 C367.549337,24.9999976 368.439995,24.76 369.4,24.76 Z M380.568,26.968 C379.671996,26.968 378.978669,27.3573294 378.488,28.136 C378.026194,28.8688664 377.762814,30.1828101 377.697855,32.0778669 L377.688,32.44 L382.936,32.44 L382.968,31.096 C382.968,29.7519933 382.786668,28.7280035 382.424,28.024 C382.061332,27.3199965 381.442671,26.968 380.568,26.968 Z" id="Ofshore" fill="#FF9743" fill-rule="nonzero"></path>
                <rect id="line" fill="#FF9743" x="247" y="0" width="4" height="64"></rect>
            </g>
        </g>
    </g>
</svg>