<?xml version="1.0" encoding="UTF-8" standalone="no"?>
<svg
   xmlns:dc="http://purl.org/dc/elements/1.1/"
   xmlns:cc="http://creativecommons.org/ns#"
   xmlns:rdf="http://www.w3.org/1999/02/22-rdf-syntax-ns#"
   xmlns:svg="http://www.w3.org/2000/svg"
   xmlns="http://www.w3.org/2000/svg"
   xmlns:sodipodi="http://sodipodi.sourceforge.net/DTD/sodipodi-0.dtd"
   xmlns:inkscape="http://www.inkscape.org/namespaces/inkscape"
   width="200"
   height="33.021011"
   viewBox="0 0 200 33.021011"
   version="1.1"
   id="svg12"
   sodipodi:docname="al-offshore.svg"
   inkscape:version="0.92.5 (2060ec1f9f, 2020-04-08)">
  <metadata
     id="metadata18">
    <rdf:RDF>
      <cc:Work
         rdf:about="">
        <dc:format>image/svg+xml</dc:format>
        <dc:type
           rdf:resource="http://purl.org/dc/dcmitype/StillImage" />
        <dc:title>9A0729AA-F018-4FDE-9C78-DF4A04585936</dc:title>
      </cc:Work>
    </rdf:RDF>
  </metadata>
  <defs
     id="defs16" />
  <sodipodi:namedview
     pagecolor="#ffffff"
     bordercolor="#666666"
     borderopacity="1"
     objecttolerance="10"
     gridtolerance="10"
     guidetolerance="10"
     inkscape:pageopacity="0"
     inkscape:pageshadow="2"
     inkscape:window-width="1848"
     inkscape:window-height="1016"
     id="namedview14"
     showgrid="false"
     fit-margin-top="0"
     fit-margin-left="0"
     fit-margin-right="0"
     fit-margin-bottom="0"
     inkscape:zoom="1.0874036"
     inkscape:cx="93.409418"
     inkscape:cy="27.401891"
     inkscape:window-x="1992"
     inkscape:window-y="27"
     inkscape:window-maximized="1"
     inkscape:current-layer="svg12" />
  <!-- Generator: sketchtool 59.1 (101010) - https://sketch.com -->
  <title
     id="title2">9A0729AA-F018-4FDE-9C78-DF4A04585936</title>
  <desc
     id="desc4">Created with sketchtool.</desc>
  <g
     id="UI-v3"
     style="fill:none;fill-rule:evenodd;stroke:none;stroke-width:1.93815994"
     transform="matrix(0.51595328,0,0,0.51595328,-0.20225369,0)">
    <g
       id="Desktop---Landing---etapa-1"
       transform="translate(-446,-147)"
       style="stroke-width:1.93815994">
      <g
         id="logo"
         transform="translate(446,147)"
         style="stroke-width:1.93815994">
        <path
           d="m 9.384,19.128 h 5.76 l 7.168,21.44 1.76,0.32 V 43 h -10.08 v -2.112 l 2.272,-0.32 -1.088,-3.84 H 7.528 L 6.44,40.6 8.936,40.888 V 43 H 0.424 L 0.392,40.888 2.248,40.536 Z m 2.368,5.568 -0.48,-2.24 -0.512,2.272 -2.592,9.536 h 6.336 z M 25.064,40.888 26.76,40.6 V 28.568 l -1.888,-0.576 v -2.496 l 5.824,-0.704 0.256,0.128 0.64,0.896 v 1.6 c 0.68267,-0.704003 1.685327,-1.306664 3.008,-1.808 1.322673,-0.501336 2.453329,-0.752 3.392,-0.752 1.152006,0 2.08533,0.191998 2.8,0.576 0.71467,0.384002 1.253332,0.981329 1.616,1.792 0.725337,-0.68267 1.637328,-1.247998 2.736,-1.696 1.098672,-0.448002 2.213328,-0.672 3.344,-0.672 1.877343,0 3.226663,0.543995 4.048,1.632 0.821337,1.088005 1.232,2.869321 1.232,5.344 V 40.6 l 1.92,0.288 V 43 h -8.672 v -2.112 l 1.44,-0.288 v -8.64 c 0,-1.536008 -0.175998,-2.602664 -0.528,-3.2 -0.352002,-0.597336 -0.997329,-0.896 -1.936,-0.896 -0.981338,0 -2.005328,0.415996 -3.072,1.248 0.128001,0.789337 0.192,1.695995 0.192,2.72 V 40.6 l 1.792,0.288 V 43 h -8.736 v -2.112 l 1.6,-0.288 v -8.736 c 0,-1.514674 -0.165332,-2.559997 -0.496,-3.136 -0.330668,-0.576003 -0.954662,-0.864 -1.872,-0.864 -0.597336,0 -1.18933,0.133332 -1.776,0.4 -0.58667,0.266668 -1.093331,0.591998 -1.52,0.976 V 40.6 l 1.728,0.288 V 43 h -8.768 z m 40.928,2.464 c -2.922681,0 -5.087993,-0.826658 -6.496,-2.48 -1.408007,-1.653342 -2.112,-3.909319 -2.112,-6.768 0,-1.941343 0.362663,-3.615993 1.088,-5.024 0.725337,-1.408007 1.743993,-2.479996 3.056,-3.216 1.312007,-0.736004 2.853325,-1.104 4.624,-1.104 2.240011,0 3.951994,0.565328 5.136,1.696 1.184006,1.130672 1.797333,2.730656 1.84,4.8 0,1.36534 -0.096,2.463996 -0.288,3.296 H 62.824 c 0.106667,1.813342 0.549329,3.194662 1.328,4.144 0.778671,0.949338 1.871993,1.424 3.28,1.424 0.789337,0 1.615996,-0.133332 2.48,-0.4 0.864004,-0.266668 1.562664,-0.570665 2.096,-0.912 l 0.896,1.952 c -0.554669,0.61867 -1.49866,1.205331 -2.832,1.76 -1.33334,0.554669 -2.693326,0.832 -4.08,0.832 z M 68.04,32.44 68.072,31.096 c 0,-1.344007 -0.181331,-2.367997 -0.544,-3.072 -0.362669,-0.704004 -0.981329,-1.056 -1.856,-1.056 -0.896005,0 -1.589331,0.389329 -2.08,1.168 -0.490669,0.778671 -0.757333,2.213323 -0.8,4.304 z m -5.504,-11.392 5.568,-6.848 3.072,2.752 c -0.554669,0.938671 -1.578659,2.021327 -3.072,3.248 l -0.583682,0.468197 C 66.285258,21.633936 65.242493,22.283198 64.392,22.616 Z m 12.96,19.84 1.952,-0.288 V 28.568 L 75.56,27.992 v -2.496 l 5.312,-0.704 h 0.096 l 0.896,0.672 v 0.768 l -0.096,2.656 h 0.096 c 0.149334,-0.490669 0.490664,-1.06133 1.024,-1.712 0.533336,-0.65067 1.210663,-1.215998 2.032,-1.696 0.821337,-0.480002 1.711995,-0.72 2.672,-0.72 0.554669,0 0.981332,0.07467 1.28,0.224 v 5.568 c -0.341335,-0.256001 -0.709331,-0.458666 -1.104,-0.608 -0.394669,-0.149334 -0.90133,-0.224 -1.52,-0.224 -0.768004,0 -1.46133,0.101332 -2.08,0.304 -0.61867,0.202668 -1.109332,0.431999 -1.472,0.688 V 40.6 l 3.52,0.32 V 43 H 75.496 Z M 94.728,22.456 c -0.832004,0 -1.503997,-0.245331 -2.016,-0.736 -0.512003,-0.490669 -0.768,-1.119996 -0.768,-1.888 0,-0.896005 0.282664,-1.631997 0.848,-2.208 0.565336,-0.576003 1.327995,-0.864 2.288,-0.864 0.960005,0 1.695997,0.245331 2.208,0.736 0.512003,0.490669 0.768,1.119996 0.768,1.888 0,0.917338 -0.287997,1.658664 -0.864,2.224 -0.528003,0.518225 -1.253181,0.798926 -2.175554,0.842111 z m -1.952,6.112 -2.144,-0.608 v -2.4 l 6.4,-0.768 h 0.064 l 0.992,0.672 V 40.6 l 1.92,0.288 V 43 H 90.792 V 40.888 L 92.776,40.6 Z m 9.088,5.664 c 0,-1.898676 0.384,-3.56266 1.152,-4.992 0.768,-1.429341 1.84533,-2.533329 3.232,-3.312 1.38667,-0.778671 2.98666,-1.168 4.8,-1.168 0.896,0 1.66933,0.05867 2.32,0.176 0.65067,0.117334 1.31733,0.282666 2,0.496 l 0.68583,0.183309 c 0.22782,0.05794 0.38321,0.09284 0.46617,0.104691 l -0.224,5.792 h -3.232 l -0.832,-3.68 c -0.064,-0.277335 -0.24,-0.474666 -0.528,-0.592 -0.288,-0.117334 -0.63467,-0.176 -1.04,-0.176 -1.00267,0 -1.78666,0.490662 -2.352,1.472 -0.56534,0.981338 -0.848,2.613322 -0.848,4.896 0,2.176011 0.35733,3.845327 1.072,5.008 0.71467,1.162672 1.67999,1.744 2.896,1.744 1.57868,0 3.02933,-0.405329 4.352,-1.216 l 0.864,1.888 c -0.512,0.576003 -1.35466,1.135997 -2.528,1.68 -1.17334,0.544003 -2.47466,0.816 -3.904,0.816 -2.79468,0 -4.88533,-0.826658 -6.272,-2.48 -1.38667,-1.653342 -2.08,-3.866653 -2.08,-6.64 z m 16.64,3.648 c 0,-1.877343 0.95466,-3.317328 2.864,-4.32 1.90934,-1.002672 4.42132,-1.514667 7.536,-1.536 v -0.64 c 0,-0.768004 -0.0853,-1.375998 -0.256,-1.824 -0.17067,-0.448002 -0.48,-0.783999 -0.928,-1.008 -0.448,-0.224001 -1.10933,-0.336 -1.984,-0.336 -1.04534,0 -1.97866,0.122665 -2.8,0.368 -0.82134,0.245335 -1.68,0.570665 -2.576,0.976 l -1.088,-2.304 c 0.34134,-0.277335 0.896,-0.613331 1.664,-1.008 0.768,-0.394669 1.69066,-0.735999 2.768,-1.024 1.07734,-0.288001 2.20266,-0.432 3.376,-0.432 1.70667,0 3.04533,0.223998 4.016,0.672 0.97067,0.448002 1.664,1.141329 2.08,2.08 0.416,0.938671 0.624,2.218659 0.624,3.84 v 9.504 h 1.664 v 2.016 c -0.49067,0.106667 -1.17333,0.213333 -2.048,0.32 -0.87467,0.106667 -1.62133,0.16 -2.24,0.16 -0.81067,0 -1.34933,-0.117332 -1.616,-0.352 -0.26667,-0.234668 -0.4,-0.703997 -0.4,-1.408 v -0.736 c -0.53334,0.640003 -1.248,1.210664 -2.144,1.712 -0.896,0.501336 -1.93066,0.752 -3.104,0.752 -1.00267,0 -1.91466,-0.218665 -2.736,-0.656 -0.82134,-0.437335 -1.472,-1.066663 -1.952,-1.888 -0.48,-0.821337 -0.72,-1.797328 -0.72,-2.928 z m 7.904,2.528 c 0.384,0 0.81066,-0.111999 1.28,-0.336 0.46934,-0.224001 0.87466,-0.495998 1.216,-0.816 v -5.088 c -1.66401,0 -2.896,0.298664 -3.696,0.896 -0.8,0.597336 -1.2,1.365329 -1.2,2.304 0,0.960005 0.21333,1.706664 0.64,2.24 0.42667,0.533336 1.01333,0.8 1.76,0.8 z m 20.608,-18.496 -2.4,-0.448 v -2.24 h 10.912 v 2.24 l -3.04,0.448 v 18.592 l 6.016,-0.32 2.08,-6.336 3.008,0.384 -0.928,8.768 h -18.112 v -2.112 l 2.464,-0.32 z M 164.84,37.88 c 0,-1.877343 0.95466,-3.317328 2.864,-4.32 1.90934,-1.002672 4.42132,-1.514667 7.536,-1.536 v -0.64 c 0,-0.768004 -0.0853,-1.375998 -0.256,-1.824 -0.17067,-0.448002 -0.48,-0.783999 -0.928,-1.008 -0.448,-0.224001 -1.10933,-0.336 -1.984,-0.336 -1.04534,0 -1.97866,0.122665 -2.8,0.368 -0.82134,0.245335 -1.68,0.570665 -2.576,0.976 l -1.088,-2.304 c 0.34133,-0.277335 0.896,-0.613331 1.664,-1.008 0.768,-0.394669 1.69066,-0.735999 2.768,-1.024 1.07734,-0.288001 2.20266,-0.432 3.376,-0.432 1.70667,0 3.04533,0.223998 4.016,0.672 0.97067,0.448002 1.664,1.141329 2.08,2.08 0.416,0.938671 0.624,2.218659 0.624,3.84 v 9.504 h 1.664 v 2.016 c -0.49067,0.106667 -1.17333,0.213333 -2.048,0.32 -0.87467,0.106667 -1.62133,0.16 -2.24,0.16 -0.81067,0 -1.34933,-0.117332 -1.616,-0.352 -0.26667,-0.234668 -0.4,-0.703997 -0.4,-1.408 v -0.736 c -0.53334,0.640003 -1.248,1.210664 -2.144,1.712 -0.896,0.501336 -1.93066,0.752 -3.104,0.752 -1.00267,0 -1.91466,-0.218665 -2.736,-0.656 -0.82134,-0.437335 -1.472,-1.066663 -1.952,-1.888 -0.48,-0.821337 -0.72,-1.797328 -0.72,-2.928 z m 7.904,2.528 c 0.384,0 0.81066,-0.111999 1.28,-0.336 0.46934,-0.224001 0.87466,-0.495998 1.216,-0.816 v -5.088 c -1.66401,0 -2.896,0.298664 -3.696,0.896 -0.8,0.597336 -1.2,1.365329 -1.2,2.304 0,0.960005 0.21333,1.706664 0.64,2.24 0.42667,0.533336 1.01333,0.8 1.76,0.8 z m 16.192,2.88 c -1.40801,0 -2.448,-0.32533 -3.12,-0.976 -0.672,-0.65067 -1.008,-1.65866 -1.008,-3.024 V 27.896 h -1.952 V 26.04 l 0.64,-0.256 c 0.512,-0.170668 0.96,-0.351999 1.344,-0.544 0.42667,-0.405335 0.768,-0.938663 1.024,-1.6 0.32,-0.768004 0.672,-1.845326 1.056,-3.232 h 2.976 l 0.192,4.8 h 4.576 v 2.688 h -4.512 v 8.48 c 0,1.173339 0.032,1.994664 0.096,2.464 0.064,0.469336 0.18667,0.773333 0.368,0.912 0.18133,0.138667 0.51733,0.208 1.008,0.208 1.00267,0 1.952,-0.170665 2.848,-0.512 l 0.672,2.016 c -0.59734,0.490669 -1.48266,0.917332 -2.656,1.28 -1.17334,0.362668 -2.35733,0.544 -3.552,0.544 z m 11.552,-20.832 c -0.832,0 -1.504,-0.245331 -2.016,-0.736 -0.512,-0.490669 -0.768,-1.119996 -0.768,-1.888 0,-0.896005 0.28266,-1.631997 0.848,-2.208 0.56534,-0.576003 1.32799,-0.864 2.288,-0.864 0.96,0 1.696,0.245331 2.208,0.736 0.512,0.490669 0.768,1.119996 0.768,1.888 0,0.917338 -0.288,1.658664 -0.864,2.224 -0.528,0.518225 -1.25318,0.798926 -2.17556,0.842111 z m -1.952,6.112 -2.144,-0.608 v -2.4 l 6.4,-0.768 h 0.064 l 0.992,0.672 V 40.6 l 1.92,0.288 V 43 h -9.216 v -2.112 l 1.984,-0.288 z m 39.68,-3.776 c 1.70667,0 3.04533,0.223998 4.016,0.672 0.97067,0.448002 1.664,1.141329 2.08,2.08 0.416,0.938671 0.624,2.218659 0.624,3.84 v 9.504 h 1.664 v 2.016 c -0.49067,0.106667 -1.17333,0.213333 -2.048,0.32 -0.87467,0.106667 -1.62133,0.16 -2.24,0.16 -0.81067,0 -1.34933,-0.117332 -1.616,-0.352 -0.26667,-0.234668 -0.4,-0.703997 -0.4,-1.408 v -0.736 c -0.53334,0.640003 -1.248,1.210664 -2.144,1.712 -0.896,0.501336 -1.93066,0.752 -3.104,0.752 -1.00267,0 -1.91466,-0.218665 -2.736,-0.656 -0.82134,-0.437335 -1.472,-1.066663 -1.952,-1.888 -0.48,-0.821337 -0.72,-1.797328 -0.72,-2.928 0,-1.877343 0.95466,-3.317328 2.864,-4.32 1.90934,-1.002672 4.42132,-1.514667 7.536,-1.536 v -0.64 c 0,-0.768004 -0.0853,-1.375998 -0.256,-1.824 -0.17067,-0.448002 -0.48,-0.783999 -0.928,-1.008 -0.448,-0.224001 -1.10933,-0.336 -1.984,-0.336 -1.04534,0 -1.97866,0.122665 -2.8,0.368 -0.82134,0.245335 -1.68,0.570665 -2.576,0.976 l -1.088,-2.304 c 0.34133,-0.277335 0.896,-0.613331 1.664,-1.008 0.768,-0.394669 1.69066,-0.735999 2.768,-1.024 1.07734,-0.288001 2.20266,-0.432 3.376,-0.432 z m -24.416,0 0.832,0.672 v 1.184 l -0.032,0.736 c 0.74667,-0.704003 1.69599,-1.301331 2.848,-1.792 1.15201,-0.490669 2.35733,-0.736 3.616,-0.736 1.28001,0 2.288,0.229331 3.024,0.688 0.736,0.458669 1.26933,1.189328 1.6,2.192 0.33067,1.002672 0.496,2.367991 0.496,4.096 V 40.6 l 1.792,0.256 V 43 h -8.704 V 40.888 L 220.84,40.6 v -8.736 c 0,-1.024005 -0.0693,-1.818664 -0.208,-2.384 -0.13867,-0.565336 -0.37867,-0.975999 -0.72,-1.232 -0.34134,-0.256001 -0.832,-0.384 -1.472,-0.384 -0.98134,0 -2.09066,0.458662 -3.328,1.376 V 40.6 l 1.76,0.288 V 43 h -8.864 v -2.112 l 1.76,-0.288 V 28.568 l -1.888,-0.576 v -2.496 l 5.824,-0.704 z m 26.24,9.376 c -1.66401,0 -2.896,0.298664 -3.696,0.896 -0.8,0.597336 -1.2,1.365329 -1.2,2.304 0,0.960005 0.21333,1.706664 0.64,2.24 0.42667,0.533336 1.01333,0.8 1.76,0.8 0.384,0 0.81066,-0.111999 1.28,-0.336 0.37547,-0.179201 0.70997,-0.389119 1.00352,-0.62976 L 240.04,39.256 Z"
           id="AméricaLatina"
           inkscape:connector-curvature="0"
           style="fill:#00376f;fill-rule:nonzero;stroke-width:1.93815994" />
        <path
           d="m 258.424,43.352 c -3.58402,0 -6.23999,-1.082656 -7.968,-3.248 -1.72801,-2.165344 -2.592,-5.146648 -2.592,-8.944 0,-2.453346 0.45333,-4.602657 1.36,-6.448 0.90667,-1.845343 2.18132,-3.269328 3.824,-4.272 1.64267,-1.002672 3.56266,-1.504 5.76,-1.504 3.66935,0 6.37333,1.018656 8.112,3.056 1.73868,2.037343 2.608,4.943981 2.608,8.72 0,2.496013 -0.45866,4.698657 -1.376,6.608 -0.91734,1.909343 -2.21333,3.391995 -3.888,4.448 -1.67468,1.056005 -3.62132,1.584 -5.84,1.584 z m 0.288,-22.304 c -1.53601,0 -2.72533,0.842658 -3.568,2.528 -0.84267,1.685342 -1.264,4.20265 -1.264,7.552 0,3.41335 0.416,5.946658 1.248,7.6 0.832,1.653342 2.01599,2.48 3.552,2.48 1.51467,0 2.69333,-0.901324 3.536,-2.704 0.84267,-1.802676 1.264,-4.389317 1.264,-7.76 0,-3.41335 -0.40533,-5.882659 -1.216,-7.408 -0.81067,-1.525341 -1.99466,-2.288 -3.552,-2.288 z m 15.136,6.848 h -2.496 v -1.984 l 2.496,-0.64 v -1.344 c 0,-1.429341 0.384,-2.730661 1.152,-3.904 0.768,-1.173339 1.79733,-2.10133 3.088,-2.784 1.29067,-0.68267 2.68266,-1.024 4.176,-1.024 0.78934,0 1.504,0.106666 2.144,0.32 v 4.64 c -0.23467,-0.256001 -0.69333,-0.506665 -1.376,-0.752 -0.68267,-0.245335 -1.35466,-0.368 -2.016,-0.368 -0.704,0 -1.20533,0.181331 -1.504,0.544 -0.29867,0.362668 -0.448,0.959996 -0.448,1.792 v 2.848 h 3.84 v 2.656 h -3.84 V 40.6 l 3.232,0.288 V 43 h -10.912 v -2.112 l 2.464,-0.288 z m 13.216,0 h -2.496 v -1.984 l 2.496,-0.64 v -1.344 c 0,-1.429341 0.384,-2.730661 1.152,-3.904 0.768,-1.173339 1.79733,-2.10133 3.088,-2.784 1.29067,-0.68267 2.68266,-1.024 4.176,-1.024 0.78934,0 1.504,0.106666 2.144,0.32 v 4.64 c -0.23467,-0.256001 -0.69333,-0.506665 -1.376,-0.752 -0.68267,-0.245335 -1.35466,-0.368 -2.016,-0.368 -0.704,0 -1.20533,0.181331 -1.504,0.544 -0.29867,0.362668 -0.448,0.959996 -0.448,1.792 v 2.848 h 3.84 v 2.656 h -3.84 V 40.6 l 3.232,0.288 V 43 H 284.6 v -2.112 l 2.464,-0.288 z m 15.104,12.448 c 0.14933,0.234668 0.496,0.447999 1.04,0.64 0.544,0.192001 1.09333,0.288 1.648,0.288 0.87467,0 1.54133,-0.186665 2,-0.56 0.45867,-0.373335 0.688,-0.858664 0.688,-1.456 0,-0.640003 -0.29866,-1.167998 -0.896,-1.584 -0.50544,-0.352002 -1.2858,-0.768914 -2.34111,-1.250745 L 302.488,35.608 c -1.38667,-0.61867 -2.42666,-1.370662 -3.12,-2.256 -0.69334,-0.885338 -1.04,-2.01066 -1.04,-3.376 0,-0.981338 0.288,-1.861329 0.864,-2.64 0.576,-0.778671 1.40799,-1.391998 2.496,-1.84 1.088,-0.448002 2.36799,-0.672 3.84,-0.672 1.024,0 1.90933,0.064 2.656,0.192 0.74667,0.128001 1.504,0.287999 2.272,0.48 0.512,0.149334 0.896,0.234667 1.152,0.256 v 4.352 h -2.848 l -0.832,-2.464 c -0.10667,-0.192001 -0.36267,-0.367999 -0.768,-0.528 -0.40534,-0.160001 -0.864,-0.24 -1.376,-0.24 -0.81067,0 -1.45066,0.175998 -1.92,0.528 -0.46934,0.352002 -0.704,0.826664 -0.704,1.424 0,0.68267 0.26666,1.221331 0.8,1.616 0.53334,0.394669 1.38666,0.858664 2.56,1.392 l 0.672,0.288 c 1.72801,0.725337 3.08266,1.509329 4.064,2.352 0.98134,0.842671 1.472,1.999993 1.472,3.472 0,1.578675 -0.62933,2.874662 -1.888,3.888 -1.25867,1.013338 -3.11465,1.52 -5.568,1.52 -1.13067,0 -2.13333,-0.09067 -3.008,-0.272 -0.87467,-0.181334 -1.83466,-0.421332 -2.88,-0.72 l -1.056,-0.288 v -4.256 h 3.04 z m 14.336,-20.448 -2.272,-0.416 v -1.952 l 6.432,-0.768 h 0.096 l 0.928,0.672 0.032,6.944 -0.256,2.848 c 0.66134,-0.61867 1.536,-1.167998 2.624,-1.648 1.088,-0.480002 2.28266,-0.72 3.584,-0.72 1.34401,0 2.38933,0.245331 3.136,0.736 0.74667,0.490669 1.26933,1.237328 1.568,2.24 0.29867,1.002672 0.448,2.335992 0.448,4 V 40.6 l 1.952,0.288 V 43 h -8.896 v -2.112 l 1.696,-0.288 v -8.736 c 0,-1.493341 -0.16,-2.53333 -0.48,-3.12 -0.32,-0.58667 -0.97066,-0.88 -1.952,-0.88 -0.59734,0 -1.19466,0.133332 -1.792,0.4 -0.59734,0.266668 -1.09867,0.591998 -1.504,0.976 V 40.6 l 1.76,0.288 V 43 h -8.768 v -2.112 l 1.664,-0.288 z m 20.32,14.304 c 0,-2.04801 0.40533,-3.781326 1.216,-5.2 0.81067,-1.418674 1.90399,-2.479996 3.28,-3.184 1.37601,-0.704004 2.88533,-1.056 4.528,-1.056 2.68801,0 4.79466,0.805325 6.32,2.416 1.52534,1.610675 2.288,3.855986 2.288,6.736 0,2.112011 -0.40533,3.871993 -1.216,5.28 -0.81067,1.408007 -1.89866,2.45333 -3.264,3.136 -1.36534,0.68267 -2.89066,1.024 -4.576,1.024 -2.66668,0 -4.76266,-0.805325 -6.288,-2.416 -1.52534,-1.610675 -2.288,-3.855986 -2.288,-6.736 z m 8.896,6.912 c 1.02401,0 1.78666,-0.549328 2.288,-1.648 0.50134,-1.098672 0.752,-2.821322 0.752,-5.168 0,-2.496013 -0.24,-4.335994 -0.72,-5.52 C 347.56,27.591994 346.75467,27 345.624,27 c -2.09068,0 -3.136,2.271977 -3.136,6.816 0,2.474679 0.256,4.309327 0.768,5.504 0.512,1.194673 1.33333,1.792 2.464,1.792 z M 381.048,24.76 c 2.24001,0 3.95199,0.565328 5.136,1.696 1.18401,1.130672 1.79733,2.730656 1.84,4.8 0,1.36534 -0.096,2.463996 -0.288,3.296 H 377.72 c 0.10667,1.813342 0.54933,3.194662 1.328,4.144 0.77867,0.949338 1.87199,1.424 3.28,1.424 0.78934,0 1.616,-0.133332 2.48,-0.4 0.864,-0.266668 1.56266,-0.570665 2.096,-0.912 l 0.896,1.952 c -0.55467,0.61867 -1.49866,1.205331 -2.832,1.76 -1.33334,0.554669 -2.69333,0.832 -4.08,0.832 -2.92268,0 -5.08799,-0.826658 -6.496,-2.48 -1.40801,-1.653342 -2.112,-3.909319 -2.112,-6.768 0,-1.941343 0.36266,-3.615993 1.088,-5.024 0.72534,-1.408007 1.74399,-2.479996 3.056,-3.216 1.31201,-0.736004 2.85332,-1.104 4.624,-1.104 z m -11.648,0 c 0.55467,0 0.98133,0.07467 1.28,0.224 v 5.568 c -0.34134,-0.256001 -0.70933,-0.458666 -1.104,-0.608 -0.39467,-0.149334 -0.90133,-0.224 -1.52,-0.224 -0.768,0 -1.46133,0.101332 -2.08,0.304 -0.61867,0.202668 -1.10933,0.431999 -1.472,0.688 V 40.6 l 3.52,0.32 V 43 h -10.72 V 40.888 L 359.256,40.6 V 28.568 l -1.888,-0.576 v -2.496 l 5.312,-0.704 h 0.096 l 0.896,0.672 v 0.768 l -0.096,2.656 h 0.096 c 0.14933,-0.490669 0.49066,-1.06133 1.024,-1.712 0.53334,-0.65067 1.21066,-1.215998 2.032,-1.696 0.82134,-0.480002 1.71199,-0.72 2.672,-0.72 z m 11.168,2.208 c -0.896,0 -1.58933,0.389329 -2.08,1.168 -0.46181,0.732866 -0.72519,2.04681 -0.79015,3.941867 L 377.688,32.44 h 5.248 l 0.032,-1.344 c 0,-1.344007 -0.18133,-2.367997 -0.544,-3.072 -0.36267,-0.704004 -0.98133,-1.056 -1.856,-1.056 z"
           id="Ofshore"
           inkscape:connector-curvature="0"
           style="fill:#ff9743;fill-rule:nonzero;stroke-width:1.93815994" />
        <rect
           id="line"
           x="247"
           y="0"
           width="4"
           height="64"
           style="fill:#ff9743;stroke-width:1.93815994" />
      </g>
    </g>
  </g>
</svg>
