<svg id="Capa_1" data-name="Capa 1" xmlns="http://www.w3.org/2000/svg" xmlns:xlink="http://www.w3.org/1999/xlink" viewBox="0 0 302 32">
  <defs>
    <style>
      .cls-1, .cls-4, .cls-7 {
        fill: none;
      }

      .cls-2 {
        opacity: 0.59;
      }

      .cls-3 {
        clip-path: url(#clip-path);
      }

      .cls-4 {
        stroke: #fff;
      }

      .cls-4, .cls-7 {
        stroke-miterlimit: 10;
      }

      .cls-5 {
        clip-path: url(#clip-path-2);
      }

      .cls-6 {
        clip-path: url(#clip-path-3);
      }

      .cls-7 {
        stroke: #ccc;
        stroke-width: 0.5px;
      }

      .cls-8 {
        clip-path: url(#clip-path-4);
      }

      .cls-9 {
        clip-path: url(#clip-path-5);
      }

      .cls-10 {
        clip-path: url(#clip-path-6);
      }

      .cls-11 {
        clip-path: url(#clip-path-7);
      }

      .cls-12 {
        fill: #5b5b5f;
      }
    </style>
    <clipPath id="clip-path">
      <rect class="cls-1" x="362" y="-1748.7548" width="188" height="360.0897"/>
    </clipPath>
    <clipPath id="clip-path-2">
      <rect class="cls-1" x="-1598.4307" y="-995" width="1277" height="1095"/>
    </clipPath>
    <clipPath id="clip-path-3">
      <rect class="cls-1" x="-1615.4307" y="-995" width="1314" height="965"/>
    </clipPath>
    <clipPath id="clip-path-4">
      <rect class="cls-1" x="-1598.4307" y="205" width="1277" height="1095"/>
    </clipPath>
    <clipPath id="clip-path-5">
      <rect class="cls-1" x="-1615.4307" y="205" width="1314" height="965"/>
    </clipPath>
    <clipPath id="clip-path-6">
      <rect class="cls-1" x="-29.4307" y="249" width="1277" height="1095"/>
    </clipPath>
    <clipPath id="clip-path-7">
      <rect class="cls-1" x="-46.4307" y="249" width="1314" height="965"/>
    </clipPath>
  </defs>
  <title>logo torreDeControl_v01</title>
  <g class="cls-2">
    <g class="cls-3">
      <line class="cls-4" x1="1054.3902" y1="-790.4133" x2="-396.878" y2="628.7574"/>
      <g>
        <line class="cls-4" x1="870.9756" y1="-1377.3402" x2="-580.2927" y2="41.8306"/>
        <line class="cls-4" x1="893.9024" y1="-1303.9743" x2="-557.3659" y2="115.1964"/>
        <line class="cls-4" x1="916.8293" y1="-1230.6084" x2="-534.439" y2="188.5623"/>
        <line class="cls-4" x1="939.7561" y1="-1157.2426" x2="-511.5122" y2="261.9281"/>
        <line class="cls-4" x1="962.6829" y1="-1083.8767" x2="-488.5854" y2="335.294"/>
        <line class="cls-4" x1="985.6098" y1="-1010.5109" x2="-465.6585" y2="408.6598"/>
        <line class="cls-4" x1="1008.5366" y1="-937.145" x2="-442.7317" y2="482.0257"/>
        <line class="cls-4" x1="1031.4634" y1="-863.7792" x2="-419.8049" y2="555.3916"/>
        <line class="cls-4" x1="1077.3171" y1="-717.0475" x2="-373.9512" y2="702.1233"/>
        <line class="cls-4" x1="1100.2439" y1="-643.6816" x2="-351.0244" y2="775.4891"/>
        <line class="cls-4" x1="1123.1707" y1="-570.3158" x2="-328.0976" y2="848.855"/>
        <line class="cls-4" x1="1146.0976" y1="-496.9499" x2="-305.1707" y2="922.2208"/>
        <line class="cls-4" x1="1169.0244" y1="-423.5841" x2="-282.2439" y2="995.5867"/>
        <line class="cls-4" x1="1191.9512" y1="-350.2182" x2="-259.3171" y2="1068.9525"/>
        <line class="cls-4" x1="1214.878" y1="-276.8523" x2="-236.3902" y2="1142.3184"/>
        <line class="cls-4" x1="1237.8049" y1="-203.4865" x2="-213.4634" y2="1215.6842"/>
        <line class="cls-4" x1="1260.7317" y1="-130.1206" x2="-190.5366" y2="1289.0501"/>
        <line class="cls-4" x1="1283.6585" y1="-56.7548" x2="-167.6098" y2="1362.4159"/>
        <line class="cls-4" x1="1306.5854" y1="16.6111" x2="-144.6829" y2="1435.7818"/>
      </g>
    </g>
  </g>
  <g class="cls-5">
    <g class="cls-6">
      <g>
        <line class="cls-7" x1="114.0693" y1="-950.5" x2="-872.9307" y2="21.5"/>
        <line class="cls-7" x1="158.0693" y1="-858.5" x2="-828.9307" y2="113.5"/>
        <line class="cls-7" x1="240.0693" y1="-815.5" x2="-746.9307" y2="156.5"/>
        <line class="cls-7" x1="303.0661" y1="-752.5031" x2="-683.9339" y2="219.4969"/>
      </g>
    </g>
  </g>
  <g class="cls-10">
    <g class="cls-11">
      <g>
        <line class="cls-7" x1="295.5693" y1="-24.5" x2="295.5693" y2="1299.5"/>
        <line class="cls-7" x1="231.0693" y1="-24.5" x2="231.0693" y2="1299.5"/>
        <line class="cls-7" x1="166.5693" y1="-24.5" x2="166.5693" y2="1299.5"/>
        <line class="cls-7" x1="102.0693" y1="-24.5" x2="102.0693" y2="1299.5"/>
        <line class="cls-7" x1="37.5693" y1="-24.5" x2="37.5693" y2="1299.5"/>
        <line class="cls-7" x1="959.0693" y1="-16.5" x2="-27.9307" y2="955.5"/>
        <line class="cls-7" x1="883.0693" y1="-68.5" x2="-103.9307" y2="903.5"/>
        <line class="cls-7" x1="803.0693" y1="-120.5" x2="-183.9307" y2="851.5"/>
        <line class="cls-7" x1="715.0693" y1="-160.5" x2="-271.9307" y2="811.5"/>
        <line class="cls-7" x1="639.0693" y1="-208.5" x2="-347.9307" y2="763.5"/>
        <line class="cls-7" x1="491.0693" y1="-202.5" x2="-495.9307" y2="769.5"/>
      </g>
    </g>
  </g>
  <g>
    <g>
      <path class="cls-12" d="M13.2559,28.5244H10.7734V5.584H4.9717V3.3369H18.99V5.584H13.2559Z"/>
      <path class="cls-12" d="M62.1211,19.167l7.1113,9.3574H66.0117l-8.4844-11.37h1.2734q.7061,0,1.4258-.0332c.48-.0215.9561-.0615,1.4258-.1172a7.7258,7.7258,0,0,0,1.2744-.252A6.0792,6.0792,0,0,0,65.9121,14.79a5.099,5.099,0,0,0,1.14-3.3369,5.9063,5.9063,0,0,0-.7207-2.8008A4.7441,4.7441,0,0,0,64.3359,6.623a6.4432,6.4432,0,0,0-2.3984-.8047,22.8017,22.8017,0,0,0-2.5322-.1338H55.0117v22.84H52.5293V3.37h6.4063q.7046,0,1.51.0332t1.626.1348a14.1371,14.1371,0,0,1,1.5928.2852,7.1937,7.1937,0,0,1,1.4092.4863A7.9556,7.9556,0,0,1,68.41,7.2275a7.792,7.792,0,0,1,1.1914,4.2588,7.42,7.42,0,0,1-.5879,2.9688,7.7216,7.7216,0,0,1-1.5928,2.3809,7.6155,7.6155,0,0,1-2.3643,1.627A8.5169,8.5169,0,0,1,62.1211,19.167Z"/>
      <path class="cls-12" d="M80.8691,19.167,87.98,28.5244H84.76l-8.4844-11.37h1.2734q.7061,0,1.4258-.0332c.48-.0215.9561-.0615,1.4258-.1172a7.7258,7.7258,0,0,0,1.2744-.252A6.0792,6.0792,0,0,0,84.66,14.79a5.099,5.099,0,0,0,1.14-3.3369,5.9063,5.9063,0,0,0-.7207-2.8008A4.7441,4.7441,0,0,0,83.084,6.623a6.4432,6.4432,0,0,0-2.3984-.8047,22.8017,22.8017,0,0,0-2.5322-.1338H73.76v22.84H71.2773V3.37h6.4063q.7046,0,1.51.0332t1.626.1348a14.1371,14.1371,0,0,1,1.5928.2852,7.1937,7.1937,0,0,1,1.4092.4863,7.9556,7.9556,0,0,1,3.3369,2.918A7.792,7.792,0,0,1,88.35,11.4863a7.42,7.42,0,0,1-.5879,2.9688,7.7216,7.7216,0,0,1-1.5928,2.3809,7.6155,7.6155,0,0,1-2.3643,1.627A8.5169,8.5169,0,0,1,80.8691,19.167Z"/>
      <path class="cls-12" d="M90.6631,3.3027h13.7842V5.584H93.2119V14.64h6.54v2.28h-6.54v9.29h11.2354V28.457H90.6631Z"/>
      <path class="cls-12" d="M128.5273,26.4453a9.8371,9.8371,0,0,1-1.8779.9551,15.9771,15.9771,0,0,1-2.0791.6377,17.941,17.941,0,0,1-2.1465.3691,19.1778,19.1778,0,0,1-2.08.1172h-7.3789V3.37h7.3789a19.9374,19.9374,0,0,1,4.2432.4863,11.3945,11.3945,0,0,1,6.3389,3.5889,12.542,12.542,0,0,1,1.7949,2.5322,12.8608,12.8608,0,0,1,1.5088,6.0371,11.8665,11.8665,0,0,1-.4033,3.085,12.6533,12.6533,0,0,1-1.14,2.8516,12.9719,12.9719,0,0,1-1.7939,2.498A11.8315,11.8315,0,0,1,128.5273,26.4453Zm-1.0723-18.85a9.56,9.56,0,0,0-3.9922-1.6436,27.6645,27.6645,0,0,0-4.3262-.335h-3.6221V26.21h4.1924a25.3756,25.3756,0,0,0,4.209-.335,9.3,9.3,0,0,0,3.874-1.6768,8.5547,8.5547,0,0,0,1.71-1.6436,10.1427,10.1427,0,0,0,1.2412-2.0293,10.8157,10.8157,0,0,0,.7549-2.2637,11.158,11.158,0,0,0,.252-2.3477,10.2344,10.2344,0,0,0-1.124-4.6953A9.6177,9.6177,0,0,0,127.4551,7.5957Z"/>
      <path class="cls-12" d="M136.4092,3.3027h13.7842V5.584H138.958V14.64h6.54v2.28h-6.54v9.29h11.2354V28.457H136.4092Z"/>
      <path class="cls-12" d="M165.873,7.3779A8.5945,8.5945,0,0,0,163.09,9.4072a8.7556,8.7556,0,0,0-1.7617,2.9512,10.649,10.649,0,0,0,.0332,7.1611,9.043,9.043,0,0,0,1.8115,2.9678A8.5355,8.5355,0,0,0,165.99,24.5a8.8235,8.8235,0,0,0,3.6563.7373h4.7617v3.2871h-4.7617V28.457a.3274.3274,0,0,1-.2354.0674,12.036,12.036,0,0,1-5.1475-1.0566,11.5712,11.5712,0,0,1-3.8242-2.8174,12.6321,12.6321,0,0,1-2.3984-4.0244,13.3707,13.3707,0,0,1-.8379-4.6787,12.9578,12.9578,0,0,1,.9063-4.83,12.3305,12.3305,0,0,1,2.5313-3.99A12.0015,12.0015,0,0,1,164.5488,4.41a12.7147,12.7147,0,0,1,5.03-1.04h4.8291V6.623h-4.8291A8.71,8.71,0,0,0,165.873,7.3779Z"/>
      <path class="cls-12" d="M188.5283,28.5244a12.2924,12.2924,0,0,1-4.9131-.9893,12.911,12.911,0,0,1-4.0254-2.7,12.641,12.641,0,0,1-2.7168-3.9912,12.09,12.09,0,0,1-.9883-4.8633,12.3769,12.3769,0,0,1,.9883-4.9463,12.5823,12.5823,0,0,1,6.7422-6.6914,12.9217,12.9217,0,0,1,9.877.0166,12.6681,12.6681,0,0,1,4.0244,2.7,12.5459,12.5459,0,0,1,3.6553,8.9551,11.9123,11.9123,0,0,1-1.0059,4.8633,12.6631,12.6631,0,0,1-2.7324,3.9736,13.0755,13.0755,0,0,1-4.0254,2.6836A12.2115,12.2115,0,0,1,188.5283,28.5244Zm0-21.9346a8.6686,8.6686,0,0,0-4.98,1.4424,9.19,9.19,0,0,0-3.2705,4.0576,10.5782,10.5782,0,0,0-.5859,1.8623,9.3259,9.3259,0,0,0-.2187,2.0283,9.0157,9.0157,0,0,0,.2188,1.9619,12.6315,12.6315,0,0,0,.5859,1.9287,9.0959,9.0959,0,0,0,3.2705,4.0078,9.3552,9.3552,0,0,0,10.2119-.1846,9.2961,9.2961,0,0,0,3.2539-4.3936,9.6866,9.6866,0,0,0,.57-3.2529,9.9363,9.9363,0,0,0-.6709-3.6553,9.3541,9.3541,0,0,0-1.8779-3.002,8.9678,8.9678,0,0,0-2.8672-2.0459A8.6975,8.6975,0,0,0,188.5283,6.59Z"/>
      <path class="cls-12" d="M222.7715,3.3027V28.5918h-3.8242l-12.51-19.5537h-.0664V28.5918h-3.6895V3.3027h4.0244l12.31,19.2178h.1V3.3027Z"/>
      <path class="cls-12" d="M232.5977,28.5244h-3.6895V6.7236h-4.8291V3.3369h13.3486V6.7236h-4.83Z"/>
      <path class="cls-12" d="M252.2852,18.6309a9.7518,9.7518,0,0,1-1.1895.335,6.0773,6.0773,0,0,1-1.292.1338l7.11,9.4248h-4.6289l-8.3164-11.7051-.4033-.5371H246.45a15.2161,15.2161,0,0,0,2.4482-.2012,6.9421,6.9421,0,0,0,2.2471-.7539,4.4863,4.4863,0,0,0,1.626-1.51,4.4482,4.4482,0,0,0,.6211-2.4648,4.1722,4.1722,0,0,0-1.7109-3.5215,5.4536,5.4536,0,0,0-1.7939-.8555,7.9226,7.9226,0,0,0-2.13-.2852h-5.2656v21.834H238.77V3.3027h9.2227a16.4014,16.4014,0,0,1,3.623.4023,6.7751,6.7751,0,0,1,3.1523,1.6777,7.198,7.198,0,0,1,1.7275,2.7666,9.7271,9.7271,0,0,1,.5537,3.2031,8.6118,8.6118,0,0,1-1.1406,4.4941A6.5529,6.5529,0,0,1,252.2852,18.6309Z"/>
      <path class="cls-12" d="M271.168,28.5244a12.2971,12.2971,0,0,1-4.9141-.9893,12.9022,12.9022,0,0,1-4.0234-2.7,12.5928,12.5928,0,0,1-2.7168-3.9912,12.0754,12.0754,0,0,1-.99-4.8633,12.3614,12.3614,0,0,1,.99-4.9463A12.5459,12.5459,0,0,1,262.23,7.0264a12.6748,12.6748,0,0,1,4.0234-2.6836,12.9242,12.9242,0,0,1,9.8779.0166,12.69,12.69,0,0,1,4.0244,2.7,12.5413,12.5413,0,0,1,3.6563,8.9551,11.9283,11.9283,0,0,1-1.0059,4.8633,12.6847,12.6847,0,0,1-2.7344,3.9736,13.0594,13.0594,0,0,1-4.0244,2.6836A12.2149,12.2149,0,0,1,271.168,28.5244Zm0-21.9346a8.673,8.673,0,0,0-4.98,1.4424,9.1948,9.1948,0,0,0-3.27,4.0576,10.5809,10.5809,0,0,0-.5879,1.8623,9.3862,9.3862,0,0,0-.2178,2.0283,9.0746,9.0746,0,0,0,.2178,1.9619,12.6382,12.6382,0,0,0,.5879,1.9287,9.1006,9.1006,0,0,0,3.27,4.0078A9.3569,9.3569,0,0,0,276.4,23.6943a9.307,9.307,0,0,0,3.2529-4.3936,9.6866,9.6866,0,0,0,.57-3.2529,9.9163,9.9163,0,0,0-.6709-3.6553,9.323,9.323,0,0,0-1.8789-3.002,8.9464,8.9464,0,0,0-2.8672-2.0459A8.6929,8.6929,0,0,0,271.168,6.59Z"/>
      <path class="cls-12" d="M285.3555,3.37h3.7227v21.834h8.7539v3.32H285.3555Z"/>
    </g>
    <g id="UTwNPI.tif">
      <path class="cls-12" d="M41.31,23.98h1.1132a7.5774,7.5774,0,0,1-15.1549.0015h1.0886a6.4026,6.4026,0,0,0,2.4281,5.0269,6.2722,6.2722,0,0,0,4.4313,1.4175A6.4715,6.4715,0,0,0,41.31,23.98Z"/>
    </g>
    <path class="cls-12" d="M23.7773,9.3811l2.5957,1.4935a9.8416,9.8416,0,1,0,8.5658-4.92V2.9617a12.84,12.84,0,0,1,6.72,23.7918A12.851,12.851,0,0,1,23.7773,9.3811Z"/>
    <path class="cls-12" d="M34.9017,9.6967v6.0819l4.2752-4.3329a6.09,6.09,0,0,1,1.0379,7.4229,6.133,6.133,0,0,1-11.2917-4.4108A6.0652,6.0652,0,0,1,34.9017,9.6967Z"/>
  </g>
</svg>
