<svg xmlns="http://www.w3.org/2000/svg" viewBox="0 0 229.41 102.46"><defs><style>.cls-1{fill:#fff;}</style></defs><title>Logo_negativo</title><g id="Layer_2" data-name="Layer 2"><g id="Capa_1" data-name="Capa 1"><path class="cls-1" d="M23.93,99.23a1.25,1.25,0,0,1,1.23,1.37c0,1.31-1.27,1.46-1.88,1.46-2,0-4-.85-4.29-3.35,0-.28-.1-.47-.24-.47s-.09.05-.19.14a9.78,9.78,0,0,1-7.86,4C4.57,102.34,0,97.92,0,91.08c0-6.59,4.57-11.16,10.69-11.16a9.45,9.45,0,0,1,7.45,3.39c.23.33.37.56.47.56s.14-.23.14-.85c0-2.4,0-5.74,0-8.48,0-3.2,0-4-1.88-4a5.67,5.67,0,0,0-.76,0h-.09a1.21,1.21,0,0,1-1.32-1.23A1.4,1.4,0,0,1,16.2,68c.47,0,1.13,0,1.56,0,3,0,3.77,1.89,3.77,3.91V72c-.05,4-.1,11.59-.09,18v6.41c0,2.26.8,2.83,1.83,2.83.24,0,.43,0,.62,0Zm-5.18-8.15c0-5.28-3.49-8.71-8-8.71-4.76,0-8,3.3-8,8.71s3.3,8.67,8,8.67C15.22,99.75,18.75,96.31,18.75,91.08Z"/><path class="cls-1" d="M44.38,98.89c-.05-.14-.1-.23-.19-.23a.26.26,0,0,0-.19.14,8.71,8.71,0,0,1-7.16,3.63c-4.76,0-7.63-3.25-7.63-6.5,0-2.36,1.55-4.76,5-5.84A74.89,74.89,0,0,1,43,88.15c.57-.09.76-.23.76-.56s0-.52,0-.76c0-2.59-1.08-4.61-4.9-4.61a7.41,7.41,0,0,0-5.51,2.26,1.31,1.31,0,0,1-1,.47A1.28,1.28,0,0,1,31,83.68c0-1.79,4-3.82,8-3.82,4.38,0,7.35,1.93,7.35,7.21a12.1,12.1,0,0,1,0,1.32c-.14,1.55-.23,4-.23,5.79,0,3.44.33,4.57,2.21,5.23a1.2,1.2,0,0,1,.81,1.18,1.27,1.27,0,0,1-1.27,1.32A4,4,0,0,1,44.38,98.89Zm-.71-7.2v-.61c0-.38-.14-.52-.47-.52h-.14c-7.4,1.18-11.31,2.12-11.31,5.42,0,2,1.89,4,5,4C39.19,99.93,43.67,98.94,43.67,91.69Z"/><path class="cls-1" d="M60.06,82.87c-.75,0-.75.1-.75.66,0,1.79-.14,6.65-.14,10.13,0,3.68.09,6.17,3.77,6.17.42,0,.85,0,1.32-.09h.18A1.17,1.17,0,0,1,65.58,101c0,1.23-1.13,1.46-3,1.46-6,0-6-5.13-6-7.2,0-3,.09-8.76.09-11.07v-.76c0-.47-.14-.51-.47-.51H53.37a1.23,1.23,0,0,1-1.32-1.28,1.21,1.21,0,0,1,1.32-1.22H56.1c.43,0,.52,0,.52-.47,0-.19.05-2.45.05-4.1V74.63a1.37,1.37,0,1,1,2.73.09c0,1.37-.09,5.14-.09,5.14,0,.52.09.52.7.52h4.2a1.21,1.21,0,0,1,1.32,1.22,1.22,1.22,0,0,1-1.32,1.27Z"/><path class="cls-1" d="M85.26,98.88c0-.14-.09-.23-.18-.23a.26.26,0,0,0-.19.14,8.71,8.71,0,0,1-7.16,3.63c-4.76,0-7.63-3.25-7.63-6.5,0-2.36,1.55-4.76,5-5.84a72.61,72.61,0,0,1,8.71-1.93c.57-.1.75-.24.75-.57s.05-.52.05-.76c0-2.59-1.08-4.61-4.9-4.61a7.41,7.41,0,0,0-5.51,2.26,1.31,1.31,0,0,1-1,.47,1.27,1.27,0,0,1-1.32-1.27c0-1.79,4-3.81,8-3.82,4.38,0,7.35,1.93,7.35,7.21a12.1,12.1,0,0,1-.05,1.32c-.14,1.55-.23,4-.23,5.79,0,3.44.33,4.57,2.21,5.23a1.19,1.19,0,0,1,.8,1.18,1.27,1.27,0,0,1-1.27,1.32A4,4,0,0,1,85.26,98.88Zm-.7-7.2v-.61c0-.38-.14-.52-.47-.52h-.15c-7.39,1.18-11.3,2.12-11.3,5.42,0,2,1.89,4,5,4C80.08,99.92,84.56,98.93,84.56,91.68Z"/><path class="cls-1" d="M108.58,81.07c0,1,0,1.65,0,2.36s0,1.36,0,2.45V86a1.16,1.16,0,0,1-1.18,1.13,1.2,1.2,0,0,1-1.32-1.22c0-3.77-4.19-3.77-4.47-3.77-2.45,0-3.82,1.46-3.82,3a3.62,3.62,0,0,0,2.31,3.1c1.32.62,3.58,1.56,5,2.31,2.92,1.51,4.2,3.72,4.2,5.84,0,2.59-2.07,6.08-7.44,6.08a7.4,7.4,0,0,1-4.72-1.55.54.54,0,0,0-.33-.19c-.09,0-.14.09-.14.24,0,1.17-.56,1.31-1.13,1.31a1.13,1.13,0,0,1-1.22-1.13v-.09c0-1,.09-1.74.09-2.45s0-1.41-.09-2.54V96a1.23,1.23,0,0,1,1.32-1.22A1.21,1.21,0,0,1,97,96c0,.33-.1.56-.1.89,0,1.56,2.36,3.11,5,3.11,2.41,0,4.71-1.37,4.71-3.63,0-2.49-2.07-3.62-7.53-5.88a5.71,5.71,0,0,1-3.82-5.23c0-2.73,2.21-5.42,6.4-5.42a7.63,7.63,0,0,1,4.15,1.27.35.35,0,0,0,.28.09c.24,0,.19-.42.24-.56a1.06,1.06,0,0,1,1.08-.76A1.11,1.11,0,0,1,108.58,81Z"/><path class="cls-1" d="M135,101.79c-1.22,0-2.35-.09-3.39-.09s-2.07,0-3.16.1h-.09a1.2,1.2,0,0,1-1.27-1.23,1.1,1.1,0,0,1,1.27-1.22c1.22,0,1.22-.29,1.22-.33a.31.31,0,0,0-.09-.19c-2.5-2.45-6.36-6-7.82-7.54a1.68,1.68,0,0,0-1.42-.56c-.7,0-.75.42-.75,2.87,0,1.13,0,2.64,0,4.9a.72.72,0,0,0,.8.8,11.22,11.22,0,0,0,1.32,0h0a1.28,1.28,0,1,1,0,2.55h0c-1.23,0-2.45-.1-3.68-.1s-2.3,0-3.39.1a1.22,1.22,0,0,1-1.41-1.23,1.3,1.3,0,0,1,1.37-1.32h0c.57,0,.66,0,1.42,0a.74.74,0,0,0,.8-.8c.09-5,.13-11.31.13-17,0-3.3,0-6.46,0-9,0-1.32-.37-1.84-1.55-1.88h-1.08A1.29,1.29,0,0,1,113,69.25c0-1.23.85-1.37,2.49-1.37,3.87,0,4.2,2.5,4.2,3.53,0,6.08-.09,16.07-.09,16.07a.71.71,0,0,0,.8.75c.52,0,.7,0,8.15-5.18.14-.1.18-.19.18-.24s-.09-.14-.33-.14c-.84,0-2,0-2-1.13a1.2,1.2,0,0,1,1.27-1.23h.09c1.18,0,2.22,0,3.3,0s2.17,0,3.39,0a1.16,1.16,0,0,1,1.37,1.23,1.24,1.24,0,0,1-1.32,1.22h-.05c-.66,0-.28-.05-.94-.05a2.3,2.3,0,0,0-1.18.43c-2.78,1.88-6.4,4.33-8.71,5.84-.28.19-.38.33-.38.47,0,.33,1.23,1.46,9.75,9.28a1.76,1.76,0,0,0,1.37.57c.19,0,.42,0,.71,0a1.16,1.16,0,0,1,1.32,1.22,1.26,1.26,0,0,1-1.32,1.32Z"/><path class="cls-1" d="M150.6,102.4c-6,0-10.65-4.47-10.65-11.11,0-6.88,5-11.4,10.5-11.4,6.46,0,9.29,5,9.29,7.72,0,1.74-1,3.06-3.44,3.16-1.08,0-2.69,0-4.43,0-3.53,0-7.54,0-8.57,0-.47,0-.57.19-.57.85,0,5.13,3.39,8.29,7.92,8.29a8.49,8.49,0,0,0,6.83-3.11,1.3,1.3,0,0,1,.94-.43,1.43,1.43,0,0,1,1.41,1.37C159.83,98.82,156.54,102.4,150.6,102.4Zm-.1-20.16c-4.52,0-7.39,4.05-7.39,5.8,0,.47.42.47,5.89.47,2.45,0,5.09,0,6.4-.05,1.13,0,1.56-.57,1.56-1.32C157,85.77,155.31,82.24,150.5,82.24Z"/><path class="cls-1" d="M171.37,82.85c-.75,0-.75.09-.75.66,0,1.79-.14,6.64-.14,10.13,0,3.67.09,6.17,3.77,6.17a12.67,12.67,0,0,0,1.32-.1h.19a1.17,1.17,0,0,1,1.13,1.23c0,1.22-1.13,1.46-3,1.46-6,0-6-5.14-6-7.21,0-3,.09-8.76.09-11.07v-.75c0-.47-.14-.52-.47-.52h-2.78a1.25,1.25,0,1,1,0-2.5h2.73c.43,0,.52,0,.52-.47,0-.19,0-2.45,0-4.1V74.6a1.37,1.37,0,1,1,2.73.1c0,1.36-.09,5.13-.09,5.13,0,.52.09.52.7.52h4.2a1.22,1.22,0,0,1,1.32,1.23,1.23,1.23,0,0,1-1.32,1.27Z"/><path class="cls-1" d="M192.43,102.35c-7.25,0-11.07-5.51-11.07-11.12,0-6.59,4.66-11.54,10.6-11.54a10.88,10.88,0,0,1,5.32,1.41c.1.05.14.09.24.09s.19-.28.23-.51c.05-.57.61-.81,1.13-.81a1.22,1.22,0,0,1,1.37,1.18v.1c-.05,1-.05,1.69-.05,2.45s0,1.46.05,2.54v.09a1.22,1.22,0,0,1-1.37,1.18,1.24,1.24,0,0,1-1.32-1.13c0-1,.1-1.55-.47-2.21a6.16,6.16,0,0,0-4.8-1.93c-4.62,0-8.2,3.67-8.2,8.9,0,4.29,2.78,8.76,8.2,8.76a7.42,7.42,0,0,0,6-2.73,1.49,1.49,0,0,1,1.23-.71,1.5,1.5,0,0,1,1.5,1.46C201.05,99.19,197.52,102.35,192.43,102.35Z"/><path class="cls-1" d="M228,101.77c-1.23,0-2.45-.09-3.68-.09s-2.3,0-3.39.1a1.22,1.22,0,0,1-1.41-1.23,1.3,1.3,0,0,1,1.36-1.32h.05c.61,0,.66,0,1.41,0a.73.73,0,0,0,.76-.8c0-1.56.05-3.35,0-5.09,0-2.45,0-4.67-.09-5.56-.24-3.91-2.73-5.56-5.42-5.56-3.3,0-6.88,2.45-7,6.18,0,.89,0,2.3,0,4s.05,3.81.05,6a.72.72,0,0,0,.8.8,11,11,0,0,0,1.31,0,1.28,1.28,0,1,1,.05,2.55h0c-1.23,0-2.5-.1-3.68-.1s-2.35,0-3.44.1a1.22,1.22,0,0,1-1.41-1.23,1.3,1.3,0,0,1,1.36-1.32h.05c.61,0,.75,0,1.51,0a.7.7,0,0,0,.75-.8c.05-3.82.09-9.75.09-15.4,0-4-.05-7.83-.05-10.65,0-1.23-.37-1.89-1.6-1.93-.42,0-.42,0-1,0h0a1.28,1.28,0,0,1-1.32-1.31c0-.81.38-1.42,2.4-1.42a9.39,9.39,0,0,1,1.18.1,3.28,3.28,0,0,1,3.2,3.58v2.68c0,3.82,0,8.06,0,8.72,0,.14,0,.23.09.23s.1,0,.19-.14a8.82,8.82,0,0,1,7-3.2c3.91,0,7.68,2.4,7.87,7.53.05,2,.1,7.4.1,11.12,0,.52.23.85.8.85s.66,0,1.32,0h.05a1.27,1.27,0,1,1,0,2.54Z"/><path class="cls-1" d="M158.11,38.62l-14.9-10.11V4.71A4.71,4.71,0,0,0,138.5,0H95.43a4.72,4.72,0,0,0-4.72,4.71V36a4.72,4.72,0,0,0,4.72,4.71h20.34l-7.68,7.73a1.17,1.17,0,0,0,0,1.65,1.14,1.14,0,0,0,.82.34,1.18,1.18,0,0,0,.83-.35L117,42.87l7.21,7.25a1.18,1.18,0,0,0,.83.35,1.13,1.13,0,0,0,.82-.34,1.17,1.17,0,0,0,0-1.65l-7.67-7.72H138.5A4.71,4.71,0,0,0,143.21,36v-4.7l13.58,9.21a1.14,1.14,0,0,0,.66.2,1.17,1.17,0,0,0,.66-2.13ZM140.87,26.93l-8-5.43a1.17,1.17,0,0,0-1.31,1.94l9.3,6.31V36a2.38,2.38,0,0,1-2.37,2.38H95.43A2.39,2.39,0,0,1,93.05,36V4.71a2.38,2.38,0,0,1,2.38-2.37H138.5a2.37,2.37,0,0,1,2.37,2.37Z"/></g></g></svg>