<?xml version="1.0" encoding="utf-8"?>
<!-- Generator: Adobe Illustrator 22.0.1, SVG Export Plug-In . SVG Version: 6.00 Build 0)  -->
<svg version="1.1" id="Capa_1" xmlns="http://www.w3.org/2000/svg" xmlns:xlink="http://www.w3.org/1999/xlink" x="0px" y="0px"
	 viewBox="0 0 512 512" style="enable-background:new 0 0 512 512;" xml:space="preserve">
<style type="text/css">
	.st0{fill:#00AD12;}
</style>
<path class="st0" d="M256,8C119,8,8,119,8,256s111,248,248,248s248-111,248-248S393,8,256,8z M256,56c110.5,0,200,89.5,200,200
	c0,110.5-89.5,200-200,200c-110.5,0-200-89.5-200-200C56,145.5,145.5,56,256,56 M396.2,186.3l-22.5-22.7c-4.7-4.7-12.3-4.7-17-0.1
	L215.3,303.7l-59.8-60.3c-4.7-4.7-12.3-4.7-17-0.1l-22.7,22.5c-4.7,4.7-4.7,12.3-0.1,17l90.8,91.5c4.7,4.7,12.3,4.7,17,0.1
	l172.6-171.2C400.8,198.6,400.9,191,396.2,186.3L396.2,186.3z"/>
</svg>
