<?xml version="1.0" encoding="utf-8"?>
<!-- Generator: Adobe Illustrator 22.0.1, SVG Export Plug-In . SVG Version: 6.00 Build 0)  -->
<svg version="1.1" id="Capa_1" xmlns="http://www.w3.org/2000/svg" xmlns:xlink="http://www.w3.org/1999/xlink" x="0px" y="0px"
	 viewBox="0 0 448 512" style="enable-background:new 0 0 448 512;" xml:space="preserve">
<style type="text/css">
	.st0{fill:#9B9B9B;}
</style>
<g>
	<g>
		<path class="st0" d="M306.7,31.3c-15.9,0-29.1-10.4-49.2-10.4c-7.4,0-14.1,1.3-20.3,3.6c0.9-2.2,1.2-4.6,1.1-7
			c-0.5-8.5-7.5-15.3-15.9-15.6C212.8,1.5,205,9.1,205,18.6c0,5.7,2.8,10.7,7.1,13.7v114.9c0,3.9,3.2,7.1,7.1,7.1h4.8
			c3.9,0,7.1-3.2,7.1-7.1v-28.1c8.4-3.6,18.9-6.6,34.1-6.6c16,0,29.1,10.4,49.2,10.4c14.3,0,25.8-4.8,36.5-12.2
			c2.6-1.8,4.1-4.7,4.1-7.8V30.5c0-7-7.2-11.6-13.5-8.6C331.2,26.6,318.7,31.3,306.7,31.3z"/>
	</g>
	<g>
		<path class="st0" d="M168,0h112 M304,140.7h88c13.3,0,24,9.6,24,21.4v321.3h20c6.6,0,12,4.8,12,10.7V512H0v-17.9
			c0-5.9,5.4-10.7,12-10.7h20V162.1c0-11.9,10.7-21.4,24-21.4h88 M308,192h-40c-6.6,0-12,5.4-12,12v40c0,6.6,5.4,12,12,12h40
			c6.6,0,12-5.4,12-12v-40C320,197.4,314.6,192,308,192z M140,256h40c6.6,0,12-5.4,12-12v-40c0-6.6-5.4-12-12-12h-40
			c-6.6,0-12,5.4-12,12v40C128,250.6,133.4,256,140,256z M244,384h-40c-6.6,0-12,5.4-12,12v84h64v-84C256,389.4,250.6,384,244,384z
			 M308,288h-40c-6.6,0-12,5.4-12,12v40c0,6.6,5.4,12,12,12h40c6.6,0,12-5.4,12-12v-40C320,293.4,314.6,288,308,288z M192,300
			c0-6.6-5.4-12-12-12h-40c-6.6,0-12,5.4-12,12v40c0,6.6,5.4,12,12,12h40c6.6,0,12-5.4,12-12V300z"/>
		<line class="st0" x1="165" y1="22" x2="284" y2="22"/>
	</g>
</g>
</svg>
