<?xml version="1.0" encoding="utf-8"?>
<!-- Generator: Adobe Illustrator 22.0.1, SVG Export Plug-In . SVG Version: 6.00 Build 0)  -->
<svg version="1.1" id="Capa_1" xmlns="http://www.w3.org/2000/svg" xmlns:xlink="http://www.w3.org/1999/xlink" x="0px" y="0px"
	 viewBox="0 0 448 512" style="enable-background:new 0 0 448 512;" xml:space="preserve">
<style type="text/css">
	.st0{fill:#5C5C5C;}
	.st1{fill:#5C5C5C;stroke:#FFFFFF;stroke-width:4.9444;stroke-miterlimit:10;}
</style>
<g>
	<path class="st0" d="M436,480.9h-20V37.3c0-12.9-10.7-23.3-24-23.3H56c-13.3,0-24,10.4-24,23.3v443.5H12c-6.6,0-12,5.3-12,11.7V512
		h448v-19.5C448,486.1,442.6,480.9,436,480.9z M128,76c0-6.6,5.4-12,12-12h40c6.6,0,12,5.4,12,12v40c0,6.6-5.4,12-12,12h-40
		c-6.6,0-12-5.4-12-12V76z M128,172c0-6.6,5.4-12,12-12h40c6.6,0,12,5.4,12,12v40c0,6.6-5.4,12-12,12h-40c-6.6,0-12-5.4-12-12V172z
		 M180,320h-40c-6.6,0-12-5.4-12-12v-40c0-6.6,5.4-12,12-12h40c6.6,0,12,5.4,12,12v40C192,314.6,186.6,320,180,320z M256,480h-64
		v-84c0-6.6,5.4-12,12-12h40c6.6,0,12,5.4,12,12V480z M320,308c0,6.6-5.4,12-12,12h-40c-6.6,0-12-5.4-12-12v-40c0-6.6,5.4-12,12-12
		h40c6.6,0,12,5.4,12,12V308z M320,212c0,6.6-5.4,12-12,12h-40c-6.6,0-12-5.4-12-12v-40c0-6.6,5.4-12,12-12h40c6.6,0,12,5.4,12,12
		V212z M320,116c0,6.6-5.4,12-12,12h-40c-6.6,0-12-5.4-12-12V76c0-6.6,5.4-12,12-12h40c6.6,0,12,5.4,12,12V116z"/>
	<g>
		<path class="st1" d="M222.9,19.4V2h-54.7v37.7v13.6h0V145c0,10.7,11,19.3,24.5,19.3h5.8c13.5,0,24.5-8.7,24.5-19.3V21.4
			C223,20.8,223,20.1,222.9,19.4z"/>
		<path class="st1" d="M277.8,20.9V2h-54.9v50.7h0.1V145c0,10.7,11,19.3,24.5,19.3h5.8c13.5,0,24.5-8.7,24.5-19.3V21.4
			C277.8,21.3,277.8,21.1,277.8,20.9z"/>
		<path class="st1" d="M332.5,21V2h-54.8v19.2c0,0.1,0,0.1,0,0.2V145c0,10.7,11,19.3,24.5,19.3h5.8c13.5,0,24.5-8.7,24.5-19.3V21.4
			C332.5,21.3,332.5,21.2,332.5,21z"/>
		<path class="st1" d="M113.6,2H79.8c-0.3,0.1-0.5,0.1-0.8,0.2c-7.6,0.4-14.4,1.8-20.5,4v6.5C41.4,28.4,39.2,54.6,39.2,54.6
			l19.3-0.2v93c0.1-0.6,0.2-1.3,0.2-1.9c0.3,10.5,11.1,18.9,24.5,18.9H89c13.5,0,24.5-8.7,24.5-19.3V53.9h0.1V2z"/>
		<path class="st1" d="M52.5,8.6C2.7,32.5,4,113.5,4,113.5s0,0-0.1,0.1V145c0,10.7,11,19.3,24.5,19.3h5.8c12.5,0,22.8-7.4,24.3-17
			V6.2C56.5,6.9,54.5,7.7,52.5,8.6z"/>
		<g>
			<path class="st1" d="M387.3,51.1l6.6-0.1L387.3,41V21.4c0-0.2,0-0.5,0-0.7V6.1c-7.1-2.6-15.2-4-24.4-4c0,0,0,0-0.1,0h-1.1
				L361.6,2l-29.1,0v19.1c0,0.1,0,0.2,0,0.3V145c0,10.7,11,19.3,24.5,19.3h5.8c13.1,0,23.8-8.1,24.4-18.3c0,0.1,0,0.2,0,0.3v-0.6
				c0-0.2,0-0.5,0-0.7V51.1z"/>
			<path class="st1" d="M387.3,145.1v1.2c0.8,10.1,11.4,18.1,24.4,18.1h0.1C398.2,164.4,387.3,155.7,387.3,145.1z"/>
			<path class="st1" d="M441.9,113.5c0,0,1.3-81-48.5-104.9c0,0,0,0-0.1,0c-1.9-0.9-4-1.8-6.1-2.5v15.3v123.6
				c0,10.7,11,19.3,24.5,19.3h5.7c13.5,0,24.5-8.7,24.5-19.3v-31.4C442,113.6,441.9,113.5,441.9,113.5z"/>
			<path class="st1" d="M387.3,145C387.3,145,387.3,145,387.3,145l0-123.6c0,0,0,0,0,0V145z"/>
		</g>
		<path class="st1" d="M168.2,20.1V2h-54.6v17.4c-0.1,0.7-0.1,1.4-0.1,2V145c0,10.7,11,19.3,24.5,19.3h5.8
			c13.5,0,24.5-8.7,24.5-19.3V21.4C168.3,21,168.2,20.6,168.2,20.1z"/>
	</g>
</g>
</svg>
