<?xml version="1.0" encoding="UTF-8" standalone="no"?>
<!-- Generator: Adobe Illustrator 22.0.1, SVG Export Plug-In . SVG Version: 6.00 Build 0)  -->

<svg
   xmlns:dc="http://purl.org/dc/elements/1.1/"
   xmlns:cc="http://creativecommons.org/ns#"
   xmlns:rdf="http://www.w3.org/1999/02/22-rdf-syntax-ns#"
   xmlns:svg="http://www.w3.org/2000/svg"
   xmlns="http://www.w3.org/2000/svg"
   xmlns:sodipodi="http://sodipodi.sourceforge.net/DTD/sodipodi-0.dtd"
   xmlns:inkscape="http://www.inkscape.org/namespaces/inkscape"
   version="1.1"
   id="Capa_1"
   x="0px"
   y="0px"
   viewBox="0 0 448 512"
   style="enable-background:new 0 0 448 512;"
   xml:space="preserve"
   sodipodi:docname="institucion-gray-light.svg"
   inkscape:version="0.92.4 (unknown)"><metadata
   id="metadata11"><rdf:RDF><cc:Work
       rdf:about=""><dc:format>image/svg+xml</dc:format><dc:type
         rdf:resource="http://purl.org/dc/dcmitype/StillImage" /><dc:title></dc:title></cc:Work></rdf:RDF></metadata><defs
   id="defs9" /><sodipodi:namedview
   pagecolor="#ffffff"
   bordercolor="#666666"
   borderopacity="1"
   objecttolerance="10"
   gridtolerance="10"
   guidetolerance="10"
   inkscape:pageopacity="0"
   inkscape:pageshadow="2"
   inkscape:window-width="1853"
   inkscape:window-height="1025"
   id="namedview7"
   showgrid="false"
   inkscape:zoom="0.4609375"
   inkscape:cx="224"
   inkscape:cy="256"
   inkscape:window-x="67"
   inkscape:window-y="27"
   inkscape:window-maximized="1"
   inkscape:current-layer="Capa_1" />
<style
   type="text/css"
   id="style2">
	.st0{fill:#5C5C5C;}
</style>
<path
   class="st0"
   d="M436,480h-20V24c0-13.3-10.7-24-24-24H56C42.7,0,32,10.7,32,24v456H12c-6.6,0-12,5.4-12,12v20h448v-20  C448,485.4,442.6,480,436,480z M128,76c0-6.6,5.4-12,12-12h40c6.6,0,12,5.4,12,12v40c0,6.6-5.4,12-12,12h-40c-6.6,0-12-5.4-12-12V76  z M128,172c0-6.6,5.4-12,12-12h40c6.6,0,12,5.4,12,12v40c0,6.6-5.4,12-12,12h-40c-6.6,0-12-5.4-12-12V172z M180,320h-40  c-6.6,0-12-5.4-12-12v-40c0-6.6,5.4-12,12-12h40c6.6,0,12,5.4,12,12v40C192,314.6,186.6,320,180,320z M256,480h-64v-84  c0-6.6,5.4-12,12-12h40c6.6,0,12,5.4,12,12V480z M320,308c0,6.6-5.4,12-12,12h-40c-6.6,0-12-5.4-12-12v-40c0-6.6,5.4-12,12-12h40  c6.6,0,12,5.4,12,12V308z M320,212c0,6.6-5.4,12-12,12h-40c-6.6,0-12-5.4-12-12v-40c0-6.6,5.4-12,12-12h40c6.6,0,12,5.4,12,12V212z   M320,116c0,6.6-5.4,12-12,12h-40c-6.6,0-12-5.4-12-12V76c0-6.6,5.4-12,12-12h40c6.6,0,12,5.4,12,12V116z"
   id="path4"
   style="fill:#9b9b9b;fill-opacity:1" />
</svg>