<?xml version="1.0" encoding="utf-8"?>
<!-- Generator: Adobe Illustrator 22.0.1, SVG Export Plug-In . SVG Version: 6.00 Build 0)  -->
<svg version="1.1" id="Capa_1" xmlns="http://www.w3.org/2000/svg" xmlns:xlink="http://www.w3.org/1999/xlink" x="0px" y="0px"
	 viewBox="0 0 512 512" style="enable-background:new 0 0 512 512;" xml:space="preserve">
<style type="text/css">
	.st0{fill:#5C5C5C;}
</style>
<path class="st0" d="M256,0c88.4,0,160,71.6,160,160s-71.6,160-160,160S96,248.4,96,160S167.6,0,256,0z M439.3,333.8L368,316
	c-74.9,53.9-165.7,41.9-223.9,0l-71.3,17.8C30,344.5,0,382.9,0,427v37c0,26.5,21.5,48,48,48h416c26.5,0,48-21.5,48-48v-37
	C512,382.9,482,344.5,439.3,333.8L439.3,333.8z"/>
</svg>
