<?xml version="1.0" encoding="utf-8"?>
<!-- Generator: Adobe Illustrator 22.0.1, SVG Export Plug-In . SVG Version: 6.00 Build 0)  -->
<svg version="1.1" id="Capa_1" xmlns="http://www.w3.org/2000/svg" xmlns:xlink="http://www.w3.org/1999/xlink" x="0px" y="0px"
	 viewBox="0 0 512 512" style="enable-background:new 0 0 512 512;" xml:space="preserve">
<style type="text/css">
	.st0{fill:#00AD12;}
</style>
<path class="st0" d="M256,8C119,8,8,119,8,256s111,248,248,248s248-111,248-248S393,8,256,8z M256,456c-110.5,0-200-89.5-200-200
	S145.5,56,256,56s200,89.5,200,200S366.5,456,256,456z M284.5,140.2l-0.4,88l88,0.4c6.6,0,12,5.4,12,12.1l-0.1,32
	c0,6.6-5.4,12-12.1,12l-88-0.4l-0.4,88c0,6.6-5.4,12-12.1,12l-32-0.1c-6.6,0-12-5.4-12-12.1l0.4-88l-88-0.4c-6.6,0-12-5.4-12-12.1
	l0.1-32c0-6.6,5.4-12,12.1-12l88,0.4l0.4-88c0-6.6,5.4-12,12.1-12l32,0.1C279.2,128.1,284.5,133.5,284.5,140.2L284.5,140.2z"/>
</svg>
