<?xml version="1.0" encoding="utf-8"?>
<!-- Generator: Adobe Illustrator 22.0.1, SVG Export Plug-In . SVG Version: 6.00 Build 0)  -->
<svg version="1.1" id="Capa_1" xmlns="http://www.w3.org/2000/svg" xmlns:xlink="http://www.w3.org/1999/xlink" x="0px" y="0px"
	 viewBox="0 0 512 512" style="enable-background:new 0 0 512 512;" xml:space="preserve">
<style type="text/css">
	.st0{fill:#2D1C9D;}
</style>
<path class="st0" d="M256,8C119,8,8,119.1,8,256c0,137,111,248,248,248s248-111,248-248C504,119.1,393,8,256,8z M256,456
	c-110.5,0-200-89.4-200-200c0-110.5,89.5-200,200-200s200,89.5,200,200S366.6,456,256,456z M363.2,200.8c0,67.1-72.4,68.1-72.4,92.9
	v6.3c0,6.6-5.4,12-12,12h-45.6c-6.6,0-12-5.4-12-12v-8.7c0-35.7,27.1-50,47.6-61.5c17.6-9.8,28.3-16.5,28.3-29.6
	c0-17.2-22-28.7-39.8-28.7c-23.2,0-33.9,11-48.9,30c-4.1,5.1-11.5,6.1-16.7,2.1l-27.8-21.1c-5.1-3.9-6.3-11.1-2.6-16.4
	c23.6-34.7,53.7-54.2,100.6-54.2C310.9,112,363.2,150.3,363.2,200.8z M298,368c0,23.2-18.8,42-42,42s-42-18.8-42-42s18.8-42,42-42
	S298,344.8,298,368z"/>
</svg>
