<?xml version="1.0" encoding="utf-8"?>
<!-- Generator: Adobe Illustrator 22.0.1, SVG Export Plug-In . SVG Version: 6.00 Build 0)  -->
<svg version="1.1" id="Capa_1" xmlns="http://www.w3.org/2000/svg" xmlns:xlink="http://www.w3.org/1999/xlink" x="0px" y="0px"
	 viewBox="0 0 512 512" style="enable-background:new 0 0 512 512;" xml:space="preserve">
<style type="text/css">
	.st0{fill:#FF4A4A;}
</style>
<path class="st0" d="M256,8C119,8,8,119,8,256s111,248,248,248s248-111,248-248S393,8,256,8z M256,456c-110.5,0-200-89.5-200-200
	S145.5,56,256,56s200,89.5,200,200S366.5,456,256,456z M357.8,193.8L295.6,256l62.2,62.2c4.7,4.7,4.7,12.3,0,17l-22.6,22.6
	c-4.7,4.7-12.3,4.7-17,0L256,295.6l-62.2,62.2c-4.7,4.7-12.3,4.7-17,0l-22.6-22.6c-4.7-4.7-4.7-12.3,0-17l62.2-62.2l-62.2-62.2
	c-4.7-4.7-4.7-12.3,0-17l22.6-22.6c4.7-4.7,12.3-4.7,17,0l62.2,62.2l62.2-62.2c4.7-4.7,12.3-4.7,17,0l22.6,22.6
	C362.5,181.5,362.5,189.1,357.8,193.8L357.8,193.8z"/>
</svg>
