<?xml version="1.0" encoding="UTF-8" standalone="no"?>
<svg
   xmlns:dc="http://purl.org/dc/elements/1.1/"
   xmlns:cc="http://creativecommons.org/ns#"
   xmlns:rdf="http://www.w3.org/1999/02/22-rdf-syntax-ns#"
   xmlns:svg="http://www.w3.org/2000/svg"
   xmlns="http://www.w3.org/2000/svg"
   xmlns:sodipodi="http://sodipodi.sourceforge.net/DTD/sodipodi-0.dtd"
   xmlns:inkscape="http://www.inkscape.org/namespaces/inkscape"
   aria-hidden="true"
   focusable="false"
   data-prefix="fas"
   data-icon="wave-triangle"
   role="img"
   viewBox="0 0 640 512"
   class="svg-inline--fa fa-wave-triangle fa-w-20 fa-9x"
   version="1.1"
   id="svg4"
   sodipodi:docname="wave-triangle.svg"
   inkscape:version="0.92.5 (2060ec1f9f, 2020-04-08)">
  <metadata
     id="metadata10">
    <rdf:RDF>
      <cc:Work
         rdf:about="">
        <dc:format>image/svg+xml</dc:format>
        <dc:type
           rdf:resource="http://purl.org/dc/dcmitype/StillImage" />
      </cc:Work>
    </rdf:RDF>
  </metadata>
  <defs
     id="defs8" />
  <sodipodi:namedview
     pagecolor="#ffffff"
     bordercolor="#666666"
     borderopacity="1"
     objecttolerance="10"
     gridtolerance="10"
     guidetolerance="10"
     inkscape:pageopacity="0"
     inkscape:pageshadow="2"
     inkscape:window-width="1854"
     inkscape:window-height="1016"
     id="namedview6"
     showgrid="false"
     inkscape:zoom="0.4609375"
     inkscape:cx="75.932203"
     inkscape:cy="256"
     inkscape:window-x="1986"
     inkscape:window-y="27"
     inkscape:window-maximized="1"
     inkscape:current-layer="svg4" />
  <path
     fill="currentColor"
     d="M464 480h-.34a32 32 0 0 1-25.25-12.8l-263-350.65L53.73 281.88a16 16 0 0 1-22.46 2.7L6.12 264.82a16 16 0 0 1-2.7-22.47L150.84 44.23A32 32 0 0 1 176 32h.34a32 32 0 0 1 25.25 12.8l263 350.65 121.68-165.33a16 16 0 0 1 22.46-2.7l25.15 19.76a16 16 0 0 1 2.7 22.47L489.16 467.77A32 32 0 0 1 464 480z"
     class=""
     id="path2"
     style="fill:#2d1c9f;fill-opacity:0.94117647" />
</svg>
