<?xml version="1.0" encoding="UTF-8" standalone="no"?>
<svg
   xmlns:dc="http://purl.org/dc/elements/1.1/"
   xmlns:cc="http://creativecommons.org/ns#"
   xmlns:rdf="http://www.w3.org/1999/02/22-rdf-syntax-ns#"
   xmlns:svg="http://www.w3.org/2000/svg"
   xmlns="http://www.w3.org/2000/svg"
   xmlns:sodipodi="http://sodipodi.sourceforge.net/DTD/sodipodi-0.dtd"
   xmlns:inkscape="http://www.inkscape.org/namespaces/inkscape"
   aria-hidden="true"
   focusable="false"
   data-prefix="fal"
   data-icon="money-check-alt"
   role="img"
   viewBox="0 0 640 512"
   class="svg-inline--fa fa-money-check-alt fa-w-20 fa-9x"
   version="1.1"
   id="svg4"
   sodipodi:docname="buyer.svg"
   inkscape:version="0.92.4 (unknown)">
  <metadata
     id="metadata10">
    <rdf:RDF>
      <cc:Work
         rdf:about="">
        <dc:format>image/svg+xml</dc:format>
        <dc:type
           rdf:resource="http://purl.org/dc/dcmitype/StillImage" />
      </cc:Work>
    </rdf:RDF>
  </metadata>
  <defs
     id="defs8" />
  <sodipodi:namedview
     pagecolor="#ffffff"
     bordercolor="#666666"
     borderopacity="1"
     objecttolerance="10"
     gridtolerance="10"
     guidetolerance="10"
     inkscape:pageopacity="0"
     inkscape:pageshadow="2"
     inkscape:window-width="1853"
     inkscape:window-height="1025"
     id="namedview6"
     showgrid="false"
     inkscape:zoom="0.4609375"
     inkscape:cx="320"
     inkscape:cy="256"
     inkscape:window-x="67"
     inkscape:window-y="27"
     inkscape:window-maximized="1"
     inkscape:current-layer="svg4" />
  <path
     fill="currentColor"
     d="M608 32H32C14.33 32 0 46.33 0 64v384c0 17.67 14.33 32 32 32h576c17.67 0 32-14.33 32-32V64c0-17.67-14.33-32-32-32zm0 416H32V64h576v384zM296 320h80c4.42 0 8-3.58 8-8v-16c0-4.42-3.58-8-8-8h-80c-4.42 0-8 3.58-8 8v16c0 4.42 3.58 8 8 8zm240-32h-80c-4.42 0-8 3.58-8 8v16c0 4.42 3.58 8 8 8h80c4.42 0 8-3.58 8-8v-16c0-4.42-3.58-8-8-8zm-240-64h240c4.42 0 8-3.58 8-8v-16c0-4.42-3.58-8-8-8H296c-4.42 0-8 3.58-8 8v16c0 4.42 3.58 8 8 8zm-161.28 33.72l42.19 11.44c4.19 1.14 7.09 4.55 7.09 8.3 0 4.8-4.5 8.7-10.06 8.7H147.6c-4.15 0-8.23-1.04-11.77-2.95-3.08-1.67-6.84-1.37-9.24 1.18l-12.07 12.73c-3.11 3.28-2.6 8.64 1.13 11.19 8.3 5.65 18.06 8.88 28.35 9.52V328c0 4.42 3.58 8 8 8h16c4.42 0 8-3.58 8-8v-10.25c22.18-1.1 40-18.57 40-40.3 0-18.17-12.62-34.28-30.72-39.17l-42.19-11.44c-4.19-1.14-7.09-4.55-7.09-8.3 0-4.8 4.5-8.7 10.06-8.7h26.34c4.15 0 8.23 1.04 11.77 2.95 3.08 1.66 6.84 1.37 9.24-1.18l12.07-12.73c3.11-3.28 2.6-8.64-1.13-11.19-8.3-5.65-18.06-8.88-28.35-9.52V168c0-4.42-3.58-8-8-8h-16c-4.42 0-8 3.58-8 8v10.25c-22.18 1.1-40 18.57-40 40.3 0 18.17 12.62 34.28 30.72 39.17z"
     class=""
     id="path2"
     style="fill:#9b9b9b;fill-opacity:1" />
</svg>
