<?xml version="1.0" encoding="UTF-8" standalone="no"?>
<svg
   xmlns:dc="http://purl.org/dc/elements/1.1/"
   xmlns:cc="http://creativecommons.org/ns#"
   xmlns:rdf="http://www.w3.org/1999/02/22-rdf-syntax-ns#"
   xmlns:svg="http://www.w3.org/2000/svg"
   xmlns="http://www.w3.org/2000/svg"
   xmlns:sodipodi="http://sodipodi.sourceforge.net/DTD/sodipodi-0.dtd"
   xmlns:inkscape="http://www.inkscape.org/namespaces/inkscape"
   aria-hidden="true"
   focusable="false"
   data-prefix="fal"
   data-icon="folder-open"
   role="img"
   viewBox="0 0 576 512"
   class="svg-inline--fa fa-folder-open fa-w-18 fa-9x"
   version="1.1"
   id="svg4"
   sodipodi:docname="info.svg"
   inkscape:version="0.92.4 (unknown)">
  <metadata
     id="metadata10">
    <rdf:RDF>
      <cc:Work
         rdf:about="">
        <dc:format>image/svg+xml</dc:format>
        <dc:type
           rdf:resource="http://purl.org/dc/dcmitype/StillImage" />
      </cc:Work>
    </rdf:RDF>
  </metadata>
  <defs
     id="defs8" />
  <sodipodi:namedview
     pagecolor="#ffffff"
     bordercolor="#666666"
     borderopacity="1"
     objecttolerance="10"
     gridtolerance="10"
     guidetolerance="10"
     inkscape:pageopacity="0"
     inkscape:pageshadow="2"
     inkscape:window-width="1853"
     inkscape:window-height="1025"
     id="namedview6"
     showgrid="false"
     inkscape:zoom="0.4609375"
     inkscape:cx="288"
     inkscape:cy="256"
     inkscape:window-x="67"
     inkscape:window-y="27"
     inkscape:window-maximized="1"
     inkscape:current-layer="svg4" />
  <path
     fill="currentColor"
     d="M527.95 224H480v-48c0-26.51-21.49-48-48-48H272l-64-64H48C21.49 64 0 85.49 0 112v288c0 26.51 21.49 48 48 48h385.057c28.068 0 54.135-14.733 68.599-38.84l67.453-112.464C588.24 264.812 565.285 224 527.95 224zM48 96h146.745l64 64H432c8.837 0 16 7.163 16 16v48H171.177c-28.068 0-54.135 14.733-68.599 38.84L32 380.47V112c0-8.837 7.163-16 16-16zm493.695 184.232l-67.479 112.464A47.997 47.997 0 0 1 433.057 416H44.823l82.017-136.696A48 48 0 0 1 168 256h359.975c12.437 0 20.119 13.568 13.72 24.232z"
     class=""
     id="path2"
     style="fill:#9b9b9b;fill-opacity:1" />
</svg>
