<?xml version="1.0" encoding="UTF-8" standalone="no"?>
<svg
   xmlns:dc="http://purl.org/dc/elements/1.1/"
   xmlns:cc="http://creativecommons.org/ns#"
   xmlns:rdf="http://www.w3.org/1999/02/22-rdf-syntax-ns#"
   xmlns:svg="http://www.w3.org/2000/svg"
   xmlns="http://www.w3.org/2000/svg"
   xmlns:sodipodi="http://sodipodi.sourceforge.net/DTD/sodipodi-0.dtd"
   xmlns:inkscape="http://www.inkscape.org/namespaces/inkscape"
   aria-hidden="true"
   focusable="false"
   data-prefix="fal"
   data-icon="dolly"
   role="img"
   viewBox="0 0 576 512"
   class="svg-inline--fa fa-dolly fa-w-18 fa-9x"
   version="1.1"
   id="svg4"
   sodipodi:docname="supplier.svg"
   inkscape:version="0.92.4 (unknown)">
  <metadata
     id="metadata10">
    <rdf:RDF>
      <cc:Work
         rdf:about="">
        <dc:format>image/svg+xml</dc:format>
        <dc:type
           rdf:resource="http://purl.org/dc/dcmitype/StillImage" />
      </cc:Work>
    </rdf:RDF>
  </metadata>
  <defs
     id="defs8" />
  <sodipodi:namedview
     pagecolor="#ffffff"
     bordercolor="#666666"
     borderopacity="1"
     objecttolerance="10"
     gridtolerance="10"
     guidetolerance="10"
     inkscape:pageopacity="0"
     inkscape:pageshadow="2"
     inkscape:window-width="1853"
     inkscape:window-height="1025"
     id="namedview6"
     showgrid="false"
     inkscape:zoom="0.4609375"
     inkscape:cx="288"
     inkscape:cy="256"
     inkscape:window-x="67"
     inkscape:window-y="27"
     inkscape:window-maximized="1"
     inkscape:current-layer="svg4" />
  <path
     fill="currentColor"
     d="M575.6 309.8l-5.1-15.2c-1.4-4.2-5.9-6.5-10.1-5.1L526 301.1 451.5 77.9c-2.7-8.1-8.4-14.7-16-18.5-7.7-3.8-16.3-4.4-24.4-1.7L176.3 136l-18-50.7C146.9 53.3 116.7 32 82.8 32H8c-4.4 0-8 3.6-8 8v16c0 4.4 3.6 8 8 8h74.8c20.3 0 38.4 12.8 45.2 31.9l96.7 271.9c-23.3 17.2-37.2 46.5-31.4 78.9 5.6 31.3 30.4 57 61.5 63.5 51.7 10.7 97.2-28.4 97.2-78.2 0-13.1-3.4-25.2-9-36.1l227.5-76c4.2-1.4 6.5-5.9 5.1-10.1zM187 166.1l106.4-35.5 25 74.9c1.4 4.2 5.9 6.5 10.1 5.1l15.2-5.1c4.2-1.4 6.5-5.9 5.1-10.1l-25-74.9L421.2 88l74.5 223.3-174.4 58.1C307.6 358.7 290.7 352 272 352c-6.3 0-12.3.9-18.1 2.3L187 166.1zM272 480c-26.5 0-48-21.5-48-48s21.5-48 48-48 48 21.5 48 48-21.5 48-48 48z"
     class=""
     id="path2"
     style="fill:#9b9b9b;fill-opacity:1" />
</svg>
